<?xml version="1.0" encoding="UTF-8" standalone="no"?>
<!-- Created with Inkscape (http://www.inkscape.org/) -->

<svg xmlns:dc="http://purl.org/dc/elements/1.1/" xmlns:cc="http://creativecommons.org/ns#" xmlns:rdf="http://www.w3.org/1999/02/22-rdf-syntax-ns#" xmlns:svg="http://www.w3.org/2000/svg" xmlns="http://www.w3.org/2000/svg" xmlns:sodipodi="http://sodipodi.sourceforge.net/DTD/sodipodi-0.dtd" xmlns:inkscape="http://www.inkscape.org/namespaces/inkscape" width="980" height="1968" viewBox="0 0 259.29166 520.69999" version="1.1" id="svg8" inkscape:version="0.92.4 (5da689c313, 2019-01-14)" sodipodi:docname="card-background-sprite-hover.svg">
<defs id="defs2" />
<sodipodi:namedview id="base" pagecolor="#3d3d3d" bordercolor="#666666" borderopacity="1.0" inkscape:pageopacity="0" inkscape:pageshadow="2" inkscape:zoom="0.32768" inkscape:cx="-44.197119" inkscape:cy="982.8118" inkscape:document-units="px" inkscape:current-layer="layer1" showgrid="false" units="px" inkscape:snap-bbox="true" inkscape:snap-nodes="false" inkscape:snap-others="false" inkscape:bbox-nodes="true" inkscape:snap-bbox-edge-midpoints="false" inkscape:object-nodes="true" inkscape:snap-intersection-paths="false" fit-margin-top="0" fit-margin-left="0" fit-margin-right="0" fit-margin-bottom="0" inkscape:snap-midpoints="false" inkscape:object-paths="false" showguides="false" />
<metadata id="metadata5">
<rdf:RDF>
<cc:Work rdf:about="">
<dc:format>image/svg+xml</dc:format>
<dc:type rdf:resource="http://purl.org/dc/dcmitype/StillImage" />
<dc:title></dc:title>
</cc:Work>
</rdf:RDF>
</metadata>
<g inkscape:label="Layer 1" inkscape:groupmode="layer" id="layer1" transform="translate(-0.2842229,-199.03893)">
<rect y="199.03896" x="0.2842229" height="520.69995" width="259.29163" id="rect958" style="fill:#3d3d3d;stroke-width:0.5291667" />
<path style="fill:#ff8c00;stroke-width:0.52917194;stroke-dashoffset:20.00012016" d="M 31.505079,243.48879 H 20.921747 L 52.142579,199.0388 Z" id="rect2515-1-6-5-1" inkscape:connector-curvature="0" sodipodi:nodetypes="cccc" />
<path style="fill:#ffd700;stroke-width:0.52917194;stroke-dashoffset:20.00012016" d="m 20.921747,254.07213 31.220832,44.45 -20.6375,-55.03334 z" id="rect2515-1-9-2" inkscape:connector-curvature="0" sodipodi:nodetypes="cccc" />
<path sodipodi:nodetypes="cccc" inkscape:connector-curvature="0" id="path1845-8-2" d="M 0.28422292,298.52212 31.505079,243.48879 0.28422292,199.0388 Z" style="fill:#f91340;stroke-width:0.52917194;stroke-dashoffset:20.00012016" />
<rect style="fill:#f91340;stroke-width:0.52914554;stroke-dashoffset:20.00012016" id="rect2513-1" width="31.220831" height="55.033337" x="0.28420654" y="298.52216" />
<rect style="fill:#ff69b4;stroke-width:0.52916145;stroke-dashoffset:20.00012016" id="rect2517-5-5" width="20.637501" height="44.450001" x="31.505033" y="298.52216" />
<rect y="353.55545" x="20.9217" height="44.450062" width="31.220833" id="rect2515-3-3" style="fill:#ff8c00;stroke-width:0.52917188;stroke-dashoffset:20.00012016" />
<path sodipodi:nodetypes="cccc" inkscape:connector-curvature="0" id="path864" d="M 83.363413,243.48879 H 72.780081 L 104.00091,199.0388 Z" style="fill:#ff8c00;stroke-width:0.52917194;stroke-dashoffset:20.00012016" />
<path sodipodi:nodetypes="cccc" inkscape:connector-curvature="0" id="path866" d="m 72.780081,254.07213 31.220829,44.45 -20.637497,-55.03334 z" style="fill:#adff2f;stroke-width:0.52917194;stroke-dashoffset:20.00012016" />
<path style="fill:#ffd700;stroke-width:0.52917194;stroke-dashoffset:20.00012016" d="M 52.142557,298.52212 83.363413,243.48879 52.142557,199.0388 Z" id="path868" inkscape:connector-curvature="0" sodipodi:nodetypes="cccc" />
<path style="fill:#ffd700;stroke-width:0.52917194;stroke-dashoffset:20.00012016" d="m 135.22177,243.48878 h -10.58333 l 31.22083,-44.44999 z" id="path872" inkscape:connector-curvature="0" sodipodi:nodetypes="cccc" />
<path style="fill:#3cb371;stroke-width:0.52917194;stroke-dashoffset:20.00012016" d="m 124.63844,254.07212 31.22083,44.44999 -20.6375,-55.03333 z" id="path874" inkscape:connector-curvature="0" sodipodi:nodetypes="cccc" />
<path sodipodi:nodetypes="cccc" inkscape:connector-curvature="0" id="path876" d="m 104.00092,298.52224 31.22085,-55.03332 -31.22085,-44.44999 z" style="fill:#adff2f;stroke-width:0.52917194;stroke-dashoffset:20.00012016" />
<path sodipodi:nodetypes="cccc" inkscape:connector-curvature="0" id="path880" d="M 187.0801,243.4888 H 176.49677 L 207.7176,199.03881 Z" style="fill:#9370db;stroke-width:0.52917194;stroke-dashoffset:20.00012016" />
<path sodipodi:nodetypes="cccc" inkscape:connector-curvature="0" id="path882" d="m 176.49677,254.07214 31.22083,44.45 -20.6375,-55.03334 z" style="fill:#3cb371;stroke-width:0.52917194;stroke-dashoffset:20.00012016" />
<path style="fill:#00bfff;stroke-width:0.52917194;stroke-dashoffset:20.00012016" d="M 155.85925,298.52213 187.0801,243.4888 155.85925,199.03881 Z" id="path884" inkscape:connector-curvature="0" sodipodi:nodetypes="cccc" />
<path style="fill:#f91340;stroke-width:0.52917194;stroke-dashoffset:20.00012016" d="m 238.93846,243.48877 h -10.58334 l 31.22084,-44.44999 z" id="path888" inkscape:connector-curvature="0" sodipodi:nodetypes="cccc" />
<path style="fill:#9370db;stroke-width:0.52917194;stroke-dashoffset:20.00012016" d="m 228.35512,254.07211 31.22084,44.45 -20.6375,-55.03334 z" id="path890" inkscape:connector-curvature="0" sodipodi:nodetypes="cccc" />
<path sodipodi:nodetypes="cccc" inkscape:connector-curvature="0" id="path892" d="M 207.7176,298.52224 238.93846,243.48891 207.7176,199.03892 Z" style="fill:#ff69b4;stroke-width:0.52917194;stroke-dashoffset:20.00012016" />
<rect y="298.52213" x="52.142532" height="55.033337" width="31.220831" id="rect896" style="fill:#ffd700;stroke-width:0.52914554;stroke-dashoffset:20.00012016" />
<rect y="298.52213" x="83.363411" height="44.450001" width="20.637501" id="rect898" style="fill:#f91340;stroke-width:0.52916145;stroke-dashoffset:20.00012016" />
<rect style="fill:#ff8c00;stroke-width:0.52917188;stroke-dashoffset:20.00012016" id="rect900" width="31.220833" height="44.450062" x="72.780029" y="353.55545" />
<rect style="fill:#adff2f;stroke-width:0.52914554;stroke-dashoffset:20.00012016" id="rect904" width="31.220831" height="55.033337" x="104.00087" y="298.52213" />
<rect style="fill:#9370db;stroke-width:0.52916145;stroke-dashoffset:20.00012016" id="rect906" width="20.637501" height="44.450001" x="135.22159" y="298.52213" />
<rect y="353.55545" x="124.63837" height="44.450062" width="31.220833" id="rect908" style="fill:#00bfff;stroke-width:0.52917188;stroke-dashoffset:20.00012016" />
<rect y="298.52213" x="155.86015" height="55.033337" width="31.220831" id="rect912" style="fill:#00bfff;stroke-width:0.52914554;stroke-dashoffset:20.00012016" />
<rect y="298.52213" x="187.07994" height="44.450001" width="20.637501" id="rect914" style="fill:#ff69b4;stroke-width:0.52916145;stroke-dashoffset:20.00012016" />
<rect style="fill:#9370db;stroke-width:0.52917188;stroke-dashoffset:20.00012016" id="rect916" width="31.220833" height="44.450062" x="176.49658" y="353.55545" />
<rect style="fill:#ff69b4;stroke-width:0.52914554;stroke-dashoffset:20.00012016" id="rect920" width="31.220831" height="55.033337" x="207.71761" y="298.52213" />
<rect style="fill:#00bfff;stroke-width:0.52916145;stroke-dashoffset:20.00012016" id="rect922" width="20.637501" height="44.450001" x="238.93829" y="298.52213" />
<rect y="353.55545" x="228.35493" height="44.450062" width="31.220833" id="rect924" style="fill:#9370db;stroke-width:0.52917188;stroke-dashoffset:20.00012016" />
<circle r="10.31875" style="fill:#ff8c00;stroke-width:0.52916133;stroke-dashoffset:20.00012016" id="circle928" cx="41.823788" cy="458.06589" />
<circle r="22.225" cy="420.23047" cx="26.213358" id="circle930" style="fill:#ffd700;stroke-width:0.52915877;stroke-dashoffset:20.00012016" />
<circle r="15.610416" cy="447.74713" cx="15.894617" id="circle932" style="fill:#f91340;stroke-width:0.52916408;stroke-dashoffset:20.00012016" />
<circle cy="458.06589" cx="93.682159" id="circle936" style="fill:#adff2f;stroke-width:0.52916133;stroke-dashoffset:20.00012016" r="10.31875" />
<circle style="fill:#ff8c00;stroke-width:0.52915877;stroke-dashoffset:20.00012016" id="circle938" cx="78.071732" cy="420.23047" r="22.225" />
<circle style="fill:#ffd700;stroke-width:0.52916408;stroke-dashoffset:20.00012016" id="circle940" cx="67.752991" cy="447.74713" r="15.610416" />
<circle r="10.31875" style="fill:#3cb371;stroke-width:0.52916133;stroke-dashoffset:20.00012016" id="circle944" cx="145.54048" cy="458.06595" />
<circle r="22.225" cy="420.23053" cx="129.93005" id="circle946" style="fill:#00bfff;stroke-width:0.52915877;stroke-dashoffset:20.00012016" />
<circle r="15.610416" cy="447.74719" cx="119.61131" id="circle948" style="fill:#adff2f;stroke-width:0.52916408;stroke-dashoffset:20.00012016" />
<circle cy="458.06595" cx="197.3988" id="circle952" style="fill:#9370db;stroke-width:0.52916133;stroke-dashoffset:20.00012016" r="10.31875" />
<circle style="fill:#3cb371;stroke-width:0.52915877;stroke-dashoffset:20.00012016" id="circle954" cx="181.78838" cy="420.23053" r="22.225" />
<circle style="fill:#00bfff;stroke-width:0.52916408;stroke-dashoffset:20.00012016" id="circle956" cx="171.46964" cy="447.74719" r="15.610416" />
<circle r="10.31875" style="fill:#3cb371;stroke-width:0.52916133;stroke-dashoffset:20.00012016" id="circle960" cx="249.2572" cy="458.06586" />
<circle r="22.225" cy="420.23044" cx="233.64677" id="circle962" style="fill:#9370db;stroke-width:0.52915877;stroke-dashoffset:20.00012016" />
<circle r="15.610416" cy="447.7471" cx="223.32803" id="circle964" style="fill:#ff69b4;stroke-width:0.52916408;stroke-dashoffset:20.00012016" />
<path sodipodi:type="star" style="fill:#adff2f;stroke-width:1.05030549" id="path2230-81-3" sodipodi:sides="6" sodipodi:cx="555.10999" sodipodi:cy="129.89999" sodipodi:r1="28.284271" sodipodi:r2="20" sodipodi:arg1="0.78539816" sodipodi:arg2="1.3089969" inkscape:flatsided="true" inkscape:rounded="0" inkscape:randomized="0" d="m 575.10999,149.89999 -27.32051,7.32051 -20,-20 7.32051,-27.32051 27.3205,-7.3205 20,20 z" transform="matrix(0.35603497,-0.35647659,0.35603497,0.35647659,-205.98635,686.26651)" />
<path transform="matrix(0.34484811,-0.34527584,0.34484811,0.34527584,-197.87583,706.97484)" d="m 575.10999,149.89999 -27.32051,7.32051 -20,-20 7.32051,-27.32051 27.3205,-7.3205 20,20 z" inkscape:randomized="0" inkscape:rounded="0" inkscape:flatsided="true" sodipodi:arg2="1.3089969" sodipodi:arg1="0.78539816" sodipodi:r2="20" sodipodi:r1="28.284271" sodipodi:cy="129.89999" sodipodi:cx="555.10999" sodipodi:sides="6" id="path2305" style="fill:#ff8c00;stroke-width:1.08437741" sodipodi:type="star" />
<path sodipodi:type="star" style="fill:#f91340;stroke-width:0.95992023" id="path2230-81" sodipodi:sides="6" sodipodi:cx="555.10999" sodipodi:cy="129.89999" sodipodi:r1="28.284271" sodipodi:r2="20" sodipodi:arg1="0.78539816" sodipodi:arg2="1.3089969" inkscape:flatsided="true" inkscape:rounded="0" inkscape:randomized="0" d="m 575.10999,149.89999 -27.32051,7.32051 -20,-20 7.32051,-27.32051 27.3205,-7.3205 20,20 z" transform="matrix(0.38959229,-0.39000872,0.38959229,0.39000872,-251.00669,714.03501)" />
<path transform="matrix(0.35603497,-0.35647659,0.35603497,0.35647659,-154.12802,686.26651)" d="m 575.10999,149.89999 -27.32051,7.32051 -20,-20 7.32051,-27.32051 27.3205,-7.3205 20,20 z" inkscape:randomized="0" inkscape:rounded="0" inkscape:flatsided="true" sodipodi:arg2="1.3089969" sodipodi:arg1="0.78539816" sodipodi:r2="20" sodipodi:r1="28.284271" sodipodi:cy="129.89999" sodipodi:cx="555.10999" sodipodi:sides="6" id="path895" style="fill:#adff2f;stroke-width:1.05030549" sodipodi:type="star" />
<path sodipodi:type="star" style="fill:#ff8c00;stroke-width:1.08437741" id="path897" sodipodi:sides="6" sodipodi:cx="555.10999" sodipodi:cy="129.89999" sodipodi:r1="28.284271" sodipodi:r2="20" sodipodi:arg1="0.78539816" sodipodi:arg2="1.3089969" inkscape:flatsided="true" inkscape:rounded="0" inkscape:randomized="0" d="m 575.10999,149.89999 -27.32051,7.32051 -20,-20 7.32051,-27.32051 27.3205,-7.3205 20,20 z" transform="matrix(0.34484811,-0.34527584,0.34484811,0.34527584,-146.0175,706.97484)" />
<path transform="matrix(0.38959229,-0.39000872,0.38959229,0.39000872,-199.14836,714.03501)" d="m 575.10999,149.89999 -27.32051,7.32051 -20,-20 7.32051,-27.32051 27.3205,-7.3205 20,20 z" inkscape:randomized="0" inkscape:rounded="0" inkscape:flatsided="true" sodipodi:arg2="1.3089969" sodipodi:arg1="0.78539816" sodipodi:r2="20" sodipodi:r1="28.284271" sodipodi:cy="129.89999" sodipodi:cx="555.10999" sodipodi:sides="6" id="path899" style="fill:#ffd700;stroke-width:0.95992023" sodipodi:type="star" />
<path transform="matrix(0.35603497,-0.35647659,0.35603497,0.35647659,-102.26969,686.26651)" d="m 575.10999,149.89999 -27.32051,7.32051 -20,-20 7.32051,-27.32051 27.3205,-7.3205 20,20 z" inkscape:randomized="0" inkscape:rounded="0" inkscape:flatsided="true" sodipodi:arg2="1.3089969" sodipodi:arg1="0.78539816" sodipodi:r2="20" sodipodi:r1="28.284271" sodipodi:cy="129.89999" sodipodi:cx="555.10999" sodipodi:sides="6" id="path905" style="fill:#3cb371;stroke-width:1.05030549" sodipodi:type="star" />
<path sodipodi:type="star" style="fill:#00bfff;stroke-width:1.08437741" id="path907" sodipodi:sides="6" sodipodi:cx="555.10999" sodipodi:cy="129.89999" sodipodi:r1="28.284271" sodipodi:r2="20" sodipodi:arg1="0.78539816" sodipodi:arg2="1.3089969" inkscape:flatsided="true" inkscape:rounded="0" inkscape:randomized="0" d="m 575.10999,149.89999 -27.32051,7.32051 -20,-20 7.32051,-27.32051 27.3205,-7.3205 20,20 z" transform="matrix(0.34484811,-0.34527584,0.34484811,0.34527584,-94.159169,706.97484)" />
<path transform="matrix(0.38959229,-0.39000872,0.38959229,0.39000872,-147.29003,714.03501)" d="m 575.10999,149.89999 -27.32051,7.32051 -20,-20 7.32051,-27.32051 27.3205,-7.3205 20,20 z" inkscape:randomized="0" inkscape:rounded="0" inkscape:flatsided="true" sodipodi:arg2="1.3089969" sodipodi:arg1="0.78539816" sodipodi:r2="20" sodipodi:r1="28.284271" sodipodi:cy="129.89999" sodipodi:cx="555.10999" sodipodi:sides="6" id="path909" style="fill:#adff2f;stroke-width:0.95992023" sodipodi:type="star" />
<path sodipodi:type="star" style="fill:#adff2f;stroke-width:1.05030549" id="path915" sodipodi:sides="6" sodipodi:cx="555.10999" sodipodi:cy="129.89999" sodipodi:r1="28.284271" sodipodi:r2="20" sodipodi:arg1="0.78539816" sodipodi:arg2="1.3089969" inkscape:flatsided="true" inkscape:rounded="0" inkscape:randomized="0" d="m 575.10999,149.89999 -27.32051,7.32051 -20,-20 7.32051,-27.32051 27.3205,-7.3205 20,20 z" transform="matrix(0.35603497,-0.35647659,0.35603497,0.35647659,-50.411359,686.26651)" />
<path transform="matrix(0.34484811,-0.34527584,0.34484811,0.34527584,-42.300839,706.97484)" d="m 575.10999,149.89999 -27.32051,7.32051 -20,-20 7.32051,-27.32051 27.3205,-7.3205 20,20 z" inkscape:randomized="0" inkscape:rounded="0" inkscape:flatsided="true" sodipodi:arg2="1.3089969" sodipodi:arg1="0.78539816" sodipodi:r2="20" sodipodi:r1="28.284271" sodipodi:cy="129.89999" sodipodi:cx="555.10999" sodipodi:sides="6" id="path917" style="fill:#3cb371;stroke-width:1.08437741" sodipodi:type="star" />
<path sodipodi:type="star" style="fill:#00bfff;stroke-width:0.95992023" id="path919" sodipodi:sides="6" sodipodi:cx="555.10999" sodipodi:cy="129.89999" sodipodi:r1="28.284271" sodipodi:r2="20" sodipodi:arg1="0.78539816" sodipodi:arg2="1.3089969" inkscape:flatsided="true" inkscape:rounded="0" inkscape:randomized="0" d="m 575.10999,149.89999 -27.32051,7.32051 -20,-20 7.32051,-27.32051 27.3205,-7.3205 20,20 z" transform="matrix(0.38959229,-0.39000872,0.38959229,0.39000872,-95.431701,714.03501)" />
<path sodipodi:type="star" style="fill:#3cb371;stroke-width:1.05030549" id="path925" sodipodi:sides="6" sodipodi:cx="555.10999" sodipodi:cy="129.89999" sodipodi:r1="28.284271" sodipodi:r2="20" sodipodi:arg1="0.78539816" sodipodi:arg2="1.3089969" inkscape:flatsided="true" inkscape:rounded="0" inkscape:randomized="0" d="m 575.10999,149.89999 -27.32051,7.32051 -20,-20 7.32051,-27.32051 27.3205,-7.3205 20,20 z" transform="matrix(0.35603497,-0.35647659,0.35603497,0.35647659,1.4469508,686.26651)" />
<path transform="matrix(0.34484811,-0.34527584,0.34484811,0.34527584,9.5574709,706.97484)" d="m 575.10999,149.89999 -27.32051,7.32051 -20,-20 7.32051,-27.32051 27.3205,-7.3205 20,20 z" inkscape:randomized="0" inkscape:rounded="0" inkscape:flatsided="true" sodipodi:arg2="1.3089969" sodipodi:arg1="0.78539816" sodipodi:r2="20" sodipodi:r1="28.284271" sodipodi:cy="129.89999" sodipodi:cx="555.10999" sodipodi:sides="6" id="path927" style="fill:#ff69b4;stroke-width:1.08437741" sodipodi:type="star" />
<path sodipodi:type="star" style="fill:#9370db;stroke-width:0.95992023" id="path929" sodipodi:sides="6" sodipodi:cx="555.10999" sodipodi:cy="129.89999" sodipodi:r1="28.284271" sodipodi:r2="20" sodipodi:arg1="0.78539816" sodipodi:arg2="1.3089969" inkscape:flatsided="true" inkscape:rounded="0" inkscape:randomized="0" d="m 575.10999,149.89999 -27.32051,7.32051 -20,-20 7.32051,-27.32051 27.3205,-7.3205 20,20 z" transform="matrix(0.38959229,-0.39000872,0.38959229,0.39000872,-43.573391,714.03501)" />
<rect style="fill:#f91340;stroke-width:0.52914554;stroke-dashoffset:20.00012016" id="rect2513-1-3-9" width="20.637505" height="20.637499" x="0.28422293" y="627.66394" />
<rect style="fill:#ff69b4;stroke-width:0.52916139;stroke-dashoffset:20.00012016" id="rect2517-5-5-6-5" width="10.054154" height="10.054168" x="20.921709" y="627.66394" />
<rect y="648.30145" x="10.338361" height="10.054165" width="20.637495" id="rect2515-3-3-2-7" style="fill:#ff8c00;stroke-width:0.52917188;stroke-dashoffset:20.00012016" />
<circle style="fill:#ffd700;stroke-width:0.52915877;stroke-dashoffset:20.00012016" id="path2427-2-7-84-9-6-6" cx="15.63009" cy="663.38275" r="5.0270834" />
<circle style="fill:#f91340;stroke-width:0.52916402;stroke-dashoffset:20.00012016" id="path2427-2-1-4-2-9" cx="10.602994" cy="673.70148" r="10.318749" />
<circle cy="678.72858" cx="25.948862" id="circle2499-0-2-2-8" style="fill:#ff8c00;stroke-width:0.52916133;stroke-dashoffset:20.00012016" r="5.0270834" />
<path style="fill:#ff8c00;stroke-width:0.52917194;stroke-dashoffset:20.00012016" d="m 20.921724,607.02646 h -10.58333 l 20.6375,-10.05417 z" id="rect2515-1-6-5-1-9-8" inkscape:connector-curvature="0" sodipodi:nodetypes="cccc" />
<path style="fill:#adff2f;stroke-width:0.52917194;stroke-dashoffset:20.00012016" d="m 10.338394,617.60979 20.6375,10.05417 -10.05417,-20.6375 z" id="rect2515-1-9-2-7-0" inkscape:connector-curvature="0" sodipodi:nodetypes="cccc" />
<path sodipodi:nodetypes="cccc" inkscape:connector-curvature="0" id="path1845-8-2-4-4" d="M 0.28422342,627.66396 20.921724,607.02646 0.28422342,596.97229 Z" style="fill:#f91340;stroke-width:0.52917194;stroke-dashoffset:20.00012016" />
<path transform="matrix(0.16757054,-0.1677784,0.16757054,0.1677784,-90.514259,781.54628)" d="m 575.10999,149.89999 -27.32051,7.32051 -20,-20 7.32051,-27.32051 27.3205,-7.3205 20,20 z" inkscape:randomized="0" inkscape:rounded="0" inkscape:flatsided="true" sodipodi:arg2="1.3089969" sodipodi:arg1="0.78539816" sodipodi:r2="20" sodipodi:r1="28.284271" sodipodi:cy="129.89999" sodipodi:cx="555.10999" sodipodi:sides="6" id="path2305-0-0" style="fill:#ff8c00;stroke-width:2.23157048" sodipodi:type="star" />
<path sodipodi:type="star" style="fill:#f91340;stroke-width:1.44970083" id="path2230-81-5-5" sodipodi:sides="6" sodipodi:cx="555.10999" sodipodi:cy="129.89999" sodipodi:r1="28.284271" sodipodi:r2="20" sodipodi:arg1="0.78539816" sodipodi:arg2="1.3089969" inkscape:flatsided="true" inkscape:rounded="0" inkscape:randomized="0" d="m 575.10999,149.89999 -27.32051,7.32051 -20,-20 7.32051,-27.32051 27.3205,-7.3205 20,20 z" transform="matrix(0.25796875,-0.25824448,0.25796875,0.25824448,-166.10808,814.20134)" />
<path transform="matrix(0.18452337,-0.18475227,0.18452337,0.18475227,-103.25697,774.00586)" d="m 575.10999,149.89999 -27.32051,7.32051 -20,-20 7.32051,-27.32051 27.3205,-7.3205 20,20 z" inkscape:randomized="0" inkscape:rounded="0" inkscape:flatsided="true" sodipodi:arg2="1.3089969" sodipodi:arg1="0.78539816" sodipodi:r2="20" sodipodi:r1="28.284271" sodipodi:cy="129.89999" sodipodi:cx="555.10999" sodipodi:sides="6" id="path2305-0-9-7" style="fill:#adff2f;stroke-width:2.02654791" sodipodi:type="star" />
<rect y="627.66394" x="30.975855" height="20.637499" width="20.637505" id="rect945" style="fill:#ffd700;stroke-width:0.52914554;stroke-dashoffset:20.00012016" />
<rect y="627.66394" x="51.613331" height="10.054168" width="10.054154" id="rect947" style="fill:#f91340;stroke-width:0.52916139;stroke-dashoffset:20.00012016" />
<rect style="fill:#ff8c00;stroke-width:0.52917188;stroke-dashoffset:20.00012016" id="rect949" width="20.637495" height="10.054165" x="41.029995" y="648.30145" />
<circle r="5.0270834" cy="663.38275" cx="46.321728" id="circle951" style="fill:#ff8c00;stroke-width:0.52915877;stroke-dashoffset:20.00012016" />
<circle r="10.318749" cy="673.70148" cx="41.294628" id="circle953" style="fill:#ffd700;stroke-width:0.52916402;stroke-dashoffset:20.00012016" />
<circle r="5.0270834" style="fill:#adff2f;stroke-width:0.52916133;stroke-dashoffset:20.00012016" id="circle955" cx="56.640491" cy="678.72858" />
<path sodipodi:nodetypes="cccc" inkscape:connector-curvature="0" id="path957" d="M 51.61336,607.02648 H 41.030026 l 20.637505,-10.05419 z" style="fill:#ff8c00;stroke-width:0.52917194;stroke-dashoffset:20.00012016" />
<path sodipodi:nodetypes="cccc" inkscape:connector-curvature="0" id="path959" d="M 41.030026,617.60981 61.667531,627.66398 51.61336,607.02648 Z" style="fill:#adff2f;stroke-width:0.52917194;stroke-dashoffset:20.00012016" />
<path style="fill:#ffd700;stroke-width:0.52917194;stroke-dashoffset:20.00012016" d="M 30.975857,627.66398 51.61336,607.02648 30.975857,596.97229 Z" id="path961" inkscape:connector-curvature="0" sodipodi:nodetypes="cccc" />
<path sodipodi:type="star" style="fill:#ff8c00;stroke-width:2.23157048" id="path963" sodipodi:sides="6" sodipodi:cx="555.10999" sodipodi:cy="129.89999" sodipodi:r1="28.284271" sodipodi:r2="20" sodipodi:arg1="0.78539816" sodipodi:arg2="1.3089969" inkscape:flatsided="true" inkscape:rounded="0" inkscape:randomized="0" d="m 575.10999,149.89999 -27.32051,7.32051 -20,-20 7.32051,-27.32051 27.3205,-7.3205 20,20 z" transform="matrix(0.16757054,-0.1677784,0.16757054,0.1677784,-59.822624,781.54628)" />
<path transform="matrix(0.25796875,-0.25824448,0.25796875,0.25824448,-135.41645,814.20134)" d="m 575.10999,149.89999 -27.32051,7.32051 -20,-20 7.32051,-27.32051 27.3205,-7.3205 20,20 z" inkscape:randomized="0" inkscape:rounded="0" inkscape:flatsided="true" sodipodi:arg2="1.3089969" sodipodi:arg1="0.78539816" sodipodi:r2="20" sodipodi:r1="28.284271" sodipodi:cy="129.89999" sodipodi:cx="555.10999" sodipodi:sides="6" id="path965" style="fill:#ffd700;stroke-width:1.44970083" sodipodi:type="star" />
<path sodipodi:type="star" style="fill:#adff2f;stroke-width:2.02654791" id="path967" sodipodi:sides="6" sodipodi:cx="555.10999" sodipodi:cy="129.89999" sodipodi:r1="28.284271" sodipodi:r2="20" sodipodi:arg1="0.78539816" sodipodi:arg2="1.3089969" inkscape:flatsided="true" inkscape:rounded="0" inkscape:randomized="0" d="m 575.10999,149.89999 -27.32051,7.32051 -20,-20 7.32051,-27.32051 27.3205,-7.3205 20,20 z" transform="matrix(0.18452337,-0.18475227,0.18452337,0.18475227,-72.565336,774.00586)" />
<rect style="fill:#adff2f;stroke-width:0.52914554;stroke-dashoffset:20.00012016" id="rect971" width="20.637505" height="20.637499" x="61.667522" y="627.66394" />
<rect style="fill:#9370db;stroke-width:0.52916139;stroke-dashoffset:20.00012016" id="rect973" width="10.054154" height="10.054168" x="82.305016" y="627.66394" />
<rect y="648.30145" x="71.721664" height="10.054165" width="20.637495" id="rect975" style="fill:#00bfff;stroke-width:0.52917188;stroke-dashoffset:20.00012016" />
<circle style="fill:#00bfff;stroke-width:0.52915877;stroke-dashoffset:20.00012016" id="circle977" cx="77.013397" cy="663.38275" r="5.0270834" />
<circle style="fill:#adff2f;stroke-width:0.52916402;stroke-dashoffset:20.00012016" id="circle979" cx="71.986298" cy="673.70148" r="10.318749" />
<circle cy="678.72858" cx="87.332169" id="circle981" style="fill:#3cb371;stroke-width:0.52916133;stroke-dashoffset:20.00012016" r="5.0270834" />
<path style="fill:#ffd700;stroke-width:0.52917194;stroke-dashoffset:20.00012016" d="M 82.305035,607.02648 H 71.721701 l 20.637504,-10.05419 z" id="path983" inkscape:connector-curvature="0" sodipodi:nodetypes="cccc" />
<path style="fill:#3cb371;stroke-width:0.52917194;stroke-dashoffset:20.00012016" d="m 71.721701,617.60981 20.637504,10.05417 -10.05417,-20.6375 z" id="path985" inkscape:connector-curvature="0" sodipodi:nodetypes="cccc" />
<path sodipodi:nodetypes="cccc" inkscape:connector-curvature="0" id="path987" d="M 61.667531,627.66398 82.305035,607.02648 61.667531,596.97229 Z" style="fill:#adff2f;stroke-width:0.52917194;stroke-dashoffset:20.00012016" />
<path transform="matrix(0.16757054,-0.1677784,0.16757054,0.1677784,-29.130952,781.54628)" d="m 575.10999,149.89999 -27.32051,7.32051 -20,-20 7.32051,-27.32051 27.3205,-7.3205 20,20 z" inkscape:randomized="0" inkscape:rounded="0" inkscape:flatsided="true" sodipodi:arg2="1.3089969" sodipodi:arg1="0.78539816" sodipodi:r2="20" sodipodi:r1="28.284271" sodipodi:cy="129.89999" sodipodi:cx="555.10999" sodipodi:sides="6" id="path989" style="fill:#00bfff;stroke-width:2.23157048" sodipodi:type="star" />
<path sodipodi:type="star" style="fill:#adff2f;stroke-width:1.44970083" id="path991" sodipodi:sides="6" sodipodi:cx="555.10999" sodipodi:cy="129.89999" sodipodi:r1="28.284271" sodipodi:r2="20" sodipodi:arg1="0.78539816" sodipodi:arg2="1.3089969" inkscape:flatsided="true" inkscape:rounded="0" inkscape:randomized="0" d="m 575.10999,149.89999 -27.32051,7.32051 -20,-20 7.32051,-27.32051 27.3205,-7.3205 20,20 z" transform="matrix(0.25796875,-0.25824448,0.25796875,0.25824448,-104.72479,814.20134)" />
<path transform="matrix(0.18452337,-0.18475227,0.18452337,0.18475227,-41.873662,774.00586)" d="m 575.10999,149.89999 -27.32051,7.32051 -20,-20 7.32051,-27.32051 27.3205,-7.3205 20,20 z" inkscape:randomized="0" inkscape:rounded="0" inkscape:flatsided="true" sodipodi:arg2="1.3089969" sodipodi:arg1="0.78539816" sodipodi:r2="20" sodipodi:r1="28.284271" sodipodi:cy="129.89999" sodipodi:cx="555.10999" sodipodi:sides="6" id="path993" style="fill:#3cb371;stroke-width:2.02654791" sodipodi:type="star" />
<rect y="627.66394" x="92.3592" height="20.637499" width="20.637505" id="rect997" style="fill:#00bfff;stroke-width:0.52914554;stroke-dashoffset:20.00012016" />
<rect y="627.66394" x="112.99668" height="10.054168" width="10.054154" id="rect999" style="fill:#ff69b4;stroke-width:0.52916139;stroke-dashoffset:20.00012016" />
<rect style="fill:#9370db;stroke-width:0.52917188;stroke-dashoffset:20.00012016" id="rect1001" width="20.637495" height="10.054165" x="102.41334" y="648.30145" />
<circle r="5.0270834" cy="663.38275" cx="107.70507" id="circle1003" style="fill:#3cb371;stroke-width:0.52915877;stroke-dashoffset:20.00012016" />
<circle r="10.318749" cy="673.70148" cx="102.67797" id="circle1005" style="fill:#00bfff;stroke-width:0.52916402;stroke-dashoffset:20.00012016" />
<circle r="5.0270834" style="fill:#9370db;stroke-width:0.52916133;stroke-dashoffset:20.00012016" id="circle1007" cx="118.02383" cy="678.72858" />
<path sodipodi:nodetypes="cccc" inkscape:connector-curvature="0" id="path1009" d="m 112.99671,607.02648 h -10.58333 l 20.6375,-10.05419 z" style="fill:#9370db;stroke-width:0.52917194;stroke-dashoffset:20.00012016" />
<path sodipodi:nodetypes="cccc" inkscape:connector-curvature="0" id="path1011" d="m 102.41338,617.60981 20.6375,10.05417 -10.05417,-20.6375 z" style="fill:#3cb371;stroke-width:0.52917194;stroke-dashoffset:20.00012016" />
<path style="fill:#00bfff;stroke-width:0.52917194;stroke-dashoffset:20.00012016" d="M 92.359205,627.66398 112.99671,607.02648 92.359205,596.97229 Z" id="path1013" inkscape:connector-curvature="0" sodipodi:nodetypes="cccc" />
<path sodipodi:type="star" style="fill:#3cb371;stroke-width:2.23157048" id="path1015" sodipodi:sides="6" sodipodi:cx="555.10999" sodipodi:cy="129.89999" sodipodi:r1="28.284271" sodipodi:r2="20" sodipodi:arg1="0.78539816" sodipodi:arg2="1.3089969" inkscape:flatsided="true" inkscape:rounded="0" inkscape:randomized="0" d="m 575.10999,149.89999 -27.32051,7.32051 -20,-20 7.32051,-27.32051 27.3205,-7.3205 20,20 z" transform="matrix(0.16757054,-0.1677784,0.16757054,0.1677784,1.5607184,781.54628)" />
<path transform="matrix(0.25796875,-0.25824448,0.25796875,0.25824448,-74.033117,814.20134)" d="m 575.10999,149.89999 -27.32051,7.32051 -20,-20 7.32051,-27.32051 27.3205,-7.3205 20,20 z" inkscape:randomized="0" inkscape:rounded="0" inkscape:flatsided="true" sodipodi:arg2="1.3089969" sodipodi:arg1="0.78539816" sodipodi:r2="20" sodipodi:r1="28.284271" sodipodi:cy="129.89999" sodipodi:cx="555.10999" sodipodi:sides="6" id="path1017" style="fill:#00bfff;stroke-width:1.44970083" sodipodi:type="star" />
<path sodipodi:type="star" style="fill:#adff2f;stroke-width:2.02654791" id="path1019" sodipodi:sides="6" sodipodi:cx="555.10999" sodipodi:cy="129.89999" sodipodi:r1="28.284271" sodipodi:r2="20" sodipodi:arg1="0.78539816" sodipodi:arg2="1.3089969" inkscape:flatsided="true" inkscape:rounded="0" inkscape:randomized="0" d="m 575.10999,149.89999 -27.32051,7.32051 -20,-20 7.32051,-27.32051 27.3205,-7.3205 20,20 z" transform="matrix(0.18452337,-0.18475227,0.18452337,0.18475227,-11.181992,774.00586)" />
<rect style="fill:#ff69b4;stroke-width:0.52914554;stroke-dashoffset:20.00012016" id="rect1023" width="20.637505" height="20.637499" x="123.05088" y="627.66394" />
<rect style="fill:#00bfff;stroke-width:0.52916139;stroke-dashoffset:20.00012016" id="rect1025" width="10.054154" height="10.054168" x="143.68834" y="627.66394" />
<rect y="648.30145" x="133.105" height="10.054165" width="20.637495" id="rect1027" style="fill:#9370db;stroke-width:0.52917188;stroke-dashoffset:20.00012016" />
<circle style="fill:#9370db;stroke-width:0.52915877;stroke-dashoffset:20.00012016" id="circle1029" cx="138.39674" cy="663.38275" r="5.0270834" />
<circle style="fill:#ff69b4;stroke-width:0.52916402;stroke-dashoffset:20.00012016" id="circle1031" cx="133.36963" cy="673.70148" r="10.318749" />
<circle cy="678.72858" cx="148.7155" id="circle1033" style="fill:#3cb371;stroke-width:0.52916133;stroke-dashoffset:20.00012016" r="5.0270834" />
<path style="fill:#f91340;stroke-width:0.52917194;stroke-dashoffset:20.00012016" d="m 143.68838,607.02648 h -10.58333 l 20.6375,-10.05419 z" id="path1035" inkscape:connector-curvature="0" sodipodi:nodetypes="cccc" />
<path style="fill:#9370db;stroke-width:0.52917194;stroke-dashoffset:20.00012016" d="m 133.10505,617.60981 20.6375,10.05417 -10.05417,-20.6375 z" id="path1037" inkscape:connector-curvature="0" sodipodi:nodetypes="cccc" />
<path sodipodi:nodetypes="cccc" inkscape:connector-curvature="0" id="path1039" d="m 123.05088,627.66398 20.6375,-20.6375 -20.6375,-10.05419 z" style="fill:#ff69b4;stroke-width:0.52917194;stroke-dashoffset:20.00012016" />
<path transform="matrix(0.16757054,-0.1677784,0.16757054,0.1677784,32.25239,781.54628)" d="m 575.10999,149.89999 -27.32051,7.32051 -20,-20 7.32051,-27.32051 27.3205,-7.3205 20,20 z" inkscape:randomized="0" inkscape:rounded="0" inkscape:flatsided="true" sodipodi:arg2="1.3089969" sodipodi:arg1="0.78539816" sodipodi:r2="20" sodipodi:r1="28.284271" sodipodi:cy="129.89999" sodipodi:cx="555.10999" sodipodi:sides="6" id="path1041" style="fill:#9370db;stroke-width:2.23157048" sodipodi:type="star" />
<path sodipodi:type="star" style="fill:#ff69b4;stroke-width:1.44970083" id="path1043" sodipodi:sides="6" sodipodi:cx="555.10999" sodipodi:cy="129.89999" sodipodi:r1="28.284271" sodipodi:r2="20" sodipodi:arg1="0.78539816" sodipodi:arg2="1.3089969" inkscape:flatsided="true" inkscape:rounded="0" inkscape:randomized="0" d="m 575.10999,149.89999 -27.32051,7.32051 -20,-20 7.32051,-27.32051 27.3205,-7.3205 20,20 z" transform="matrix(0.25796875,-0.25824448,0.25796875,0.25824448,-43.341446,814.20134)" />
<path transform="matrix(0.18452337,-0.18475227,0.18452337,0.18475227,19.509679,774.00586)" d="m 575.10999,149.89999 -27.32051,7.32051 -20,-20 7.32051,-27.32051 27.3205,-7.3205 20,20 z" inkscape:randomized="0" inkscape:rounded="0" inkscape:flatsided="true" sodipodi:arg2="1.3089969" sodipodi:arg1="0.78539816" sodipodi:r2="20" sodipodi:r1="28.284271" sodipodi:cy="129.89999" sodipodi:cx="555.10999" sodipodi:sides="6" id="path1045" style="fill:#3cb371;stroke-width:2.02654791" sodipodi:type="star" />
</g>
</svg>
