<?xml version="1.0" encoding="UTF-8" standalone="no"?>
<!-- Created with Inkscape (http://www.inkscape.org/) -->

<svg xmlns:dc="http://purl.org/dc/elements/1.1/" xmlns:cc="http://creativecommons.org/ns#" xmlns:rdf="http://www.w3.org/1999/02/22-rdf-syntax-ns#" xmlns:svg="http://www.w3.org/2000/svg" xmlns="http://www.w3.org/2000/svg" xmlns:sodipodi="http://sodipodi.sourceforge.net/DTD/sodipodi-0.dtd" xmlns:inkscape="http://www.inkscape.org/namespaces/inkscape" width="980" height="1968" viewBox="0 0 259.29165 520.69999" version="1.1" id="svg8" inkscape:version="0.92.4 (5da689c313, 2019-01-14)" sodipodi:docname="card-background-sprite.svg">
<defs id="defs2" />
<sodipodi:namedview id="base" pagecolor="#3d3d3d" bordercolor="#666666" borderopacity="1.0" inkscape:pageopacity="0" inkscape:pageshadow="2" inkscape:zoom="0.64" inkscape:cx="154.34776" inkscape:cy="502.39542" inkscape:document-units="px" inkscape:current-layer="layer1" showgrid="false" units="px" inkscape:snap-bbox="true" inkscape:snap-nodes="false" inkscape:snap-others="false" inkscape:bbox-nodes="true" inkscape:snap-bbox-edge-midpoints="false" inkscape:object-nodes="true" inkscape:snap-intersection-paths="false" fit-margin-top="0" fit-margin-left="0" fit-margin-right="0" fit-margin-bottom="0" inkscape:snap-midpoints="false" inkscape:object-paths="false" showguides="false" />
<metadata id="metadata5">
<rdf:RDF>
<cc:Work rdf:about="">
<dc:format>image/svg+xml</dc:format>
<dc:type rdf:resource="http://purl.org/dc/dcmitype/StillImage" />
<dc:title></dc:title>
</cc:Work>
</rdf:RDF>
</metadata>
<g inkscape:label="Layer 1" inkscape:groupmode="layer" id="layer1" transform="translate(-53.590374,-180.45103)">
<rect style="fill:#3d3d3d;stroke-width:0.5291667" id="rect868" width="259.29166" height="520.69995" x="53.590374" y="180.45107" />
<path style="fill:#000000;stroke-width:0.52917194;stroke-dashoffset:20.00012016" d="M 84.811272,224.9009 H 74.22794 l 31.22083,-44.44999 z" id="rect2515-1-6-5-1" inkscape:connector-curvature="0" sodipodi:nodetypes="cccc" />
<path style="fill:#000000;stroke-width:0.52917194;stroke-dashoffset:20.00012016" d="m 74.22794,235.48424 31.22083,44.45 -20.637498,-55.03334 z" id="rect2515-1-9-2" inkscape:connector-curvature="0" sodipodi:nodetypes="cccc" />
<path sodipodi:nodetypes="cccc" inkscape:connector-curvature="0" id="path1845-8-2" d="M 53.590413,279.93423 84.811272,224.9009 53.590413,180.45091 Z" style="fill:#242424;stroke-width:0.52917194;stroke-dashoffset:20.00012016" />
<rect style="fill:#242424;stroke-width:0.5291456;stroke-dashoffset:20.00012016" id="rect2513-1" width="31.220831" height="55.033337" x="53.590374" y="279.93423" />
<rect style="fill:#000000;stroke-width:0.52916145;stroke-dashoffset:20.00012016" id="rect2517-5-5" width="20.637499" height="44.450001" x="84.811203" y="279.93423" />
<rect y="334.96756" x="74.227455" height="44.450062" width="31.220833" id="rect2515-3-3" style="fill:#000000;stroke-width:0.52917188;stroke-dashoffset:20.00012016" />
<circle cy="439.47806" cx="95.130135" id="circle2499-0" style="fill:#000000;stroke-width:0.52916133;stroke-dashoffset:20.00012016" r="10.31875" />
<circle style="fill:#000000;stroke-width:0.52915877;stroke-dashoffset:20.00012016" id="path2427-2-7-84" cx="79.519707" cy="401.64264" r="22.225" />
<circle style="fill:#242424;stroke-width:0.52916408;stroke-dashoffset:20.00012016" id="path2427-2-1" cx="69.20079" cy="429.1593" r="15.610416" />
<rect style="fill:#242424;stroke-width:0.52914554;stroke-dashoffset:20.00012016" id="rect2513-1-3" width="20.637503" height="20.637499" x="53.590374" y="609.07605" />
<rect style="fill:#000000;stroke-width:0.52916139;stroke-dashoffset:20.00012016" id="rect2517-5-5-6" width="10.054154" height="10.054168" x="74.227859" y="609.07605" />
<rect y="629.71356" x="63.644512" height="10.054164" width="20.637495" id="rect2515-3-3-2" style="fill:#000000;stroke-width:0.52917188;stroke-dashoffset:20.00012016" />
<circle style="fill:#000000;stroke-width:0.52915877;stroke-dashoffset:20.00012016" id="path2427-2-7-84-9-6" cx="68.936241" cy="644.7948" r="5.0270834" />
<circle style="fill:#242424;stroke-width:0.52916402;stroke-dashoffset:20.00012016" id="path2427-2-1-4-2" cx="63.909145" cy="655.11353" r="10.318749" />
<circle cy="660.14062" cx="79.255013" id="circle2499-0-2-2" style="fill:#000000;stroke-width:0.52916133;stroke-dashoffset:20.00012016" r="5.0270834" />
<path style="fill:#000000;stroke-width:0.52917194;stroke-dashoffset:20.00012016" d="m 74.227875,588.43855 h -10.58333 l 20.6375,-10.05417 z" id="rect2515-1-6-5-1-9" inkscape:connector-curvature="0" sodipodi:nodetypes="cccc" />
<path style="fill:#000000;stroke-width:0.52917194;stroke-dashoffset:20.00012016" d="m 63.644545,599.02188 20.6375,10.05417 -10.05417,-20.6375 z" id="rect2515-1-9-2-7" inkscape:connector-curvature="0" sodipodi:nodetypes="cccc" />
<path sodipodi:nodetypes="cccc" inkscape:connector-curvature="0" id="path1845-8-2-4" d="M 53.590374,609.07605 74.227875,588.43855 53.590374,578.38438 Z" style="fill:#242424;stroke-width:0.52917194;stroke-dashoffset:20.00012016" />
<path transform="matrix(0.16757054,-0.1677784,0.16757054,0.1677784,-37.208106,762.95835)" d="m 575.10999,149.89999 -27.32051,7.32051 -20,-20 7.32051,-27.32051 27.3205,-7.3205 20,20 z" inkscape:randomized="0" inkscape:rounded="0" inkscape:flatsided="true" sodipodi:arg2="1.3089969" sodipodi:arg1="0.78539816" sodipodi:r2="20" sodipodi:r1="28.284271" sodipodi:cy="129.89999" sodipodi:cx="555.10999" sodipodi:sides="6" id="path2305-0" style="fill:#000000;stroke-width:2.23157048" sodipodi:type="star" />
<path sodipodi:type="star" style="fill:#242424;stroke-width:1.44970083" id="path2230-81-5" sodipodi:sides="6" sodipodi:cx="555.10999" sodipodi:cy="129.89999" sodipodi:r1="28.284271" sodipodi:r2="20" sodipodi:arg1="0.78539816" sodipodi:arg2="1.3089969" inkscape:flatsided="true" inkscape:rounded="0" inkscape:randomized="0" d="m 575.10999,149.89999 -27.32051,7.32051 -20,-20 7.32051,-27.32051 27.3205,-7.3205 20,20 z" transform="matrix(0.25796874,-0.25824447,0.25796874,0.25824447,-112.80194,795.61341)" />
<path transform="matrix(0.18452337,-0.18475226,0.18452337,0.18475226,-49.950816,755.41794)" d="m 575.10999,149.89999 -27.32051,7.32051 -20,-20 7.32051,-27.32051 27.3205,-7.3205 20,20 z" inkscape:randomized="0" inkscape:rounded="0" inkscape:flatsided="true" sodipodi:arg2="1.3089969" sodipodi:arg1="0.78539816" sodipodi:r2="20" sodipodi:r1="28.284271" sodipodi:cy="129.89999" sodipodi:cx="555.10999" sodipodi:sides="6" id="path2305-0-9" style="fill:#000000;stroke-width:2.02654791" sodipodi:type="star" />
<circle r="10.31875" style="fill:#000000;stroke-width:0.52916133;stroke-dashoffset:20.00012016" id="circle846" cx="146.98849" cy="439.47806" />
<circle r="22.225" cy="401.64264" cx="131.37807" id="circle848" style="fill:#000000;stroke-width:0.52915877;stroke-dashoffset:20.00012016" />
<circle r="15.610416" cy="429.1593" cx="121.05912" id="circle850" style="fill:#242424;stroke-width:0.52916408;stroke-dashoffset:20.00012016" />
<circle r="10.31875" style="fill:#000000;stroke-width:0.52916133;stroke-dashoffset:20.00012016" id="circle854" cx="198.84685" cy="439.47806" />
<circle r="22.225" cy="401.64264" cx="183.23642" id="circle856" style="fill:#000000;stroke-width:0.52915877;stroke-dashoffset:20.00012016" />
<circle r="15.610416" cy="429.1593" cx="172.91745" id="circle858" style="fill:#242424;stroke-width:0.52916408;stroke-dashoffset:20.00012016" />
<circle cy="439.47806" cx="250.7052" id="circle862" style="fill:#000000;stroke-width:0.52916133;stroke-dashoffset:20.00012016" r="10.31875" />
<circle style="fill:#000000;stroke-width:0.52915877;stroke-dashoffset:20.00012016" id="circle864" cx="235.09477" cy="401.64264" r="22.225" />
<circle style="fill:#242424;stroke-width:0.52916408;stroke-dashoffset:20.00012016" id="circle866" cx="224.77579" cy="429.1593" r="15.610416" />
<circle cy="439.47806" cx="302.56357" id="circle870" style="fill:#000000;stroke-width:0.52916133;stroke-dashoffset:20.00012016" r="10.31875" />
<circle style="fill:#000000;stroke-width:0.52915877;stroke-dashoffset:20.00012016" id="circle872" cx="286.95312" cy="401.64264" r="22.225" />
<circle style="fill:#242424;stroke-width:0.52916408;stroke-dashoffset:20.00012016" id="circle874" cx="276.63412" cy="429.1593" r="15.610416" />
<path sodipodi:nodetypes="cccc" inkscape:connector-curvature="0" id="path888" d="m 136.66982,224.9009 h -10.58333 l 31.22083,-44.44999 z" style="fill:#000000;stroke-width:0.52917194;stroke-dashoffset:20.00012016" />
<path sodipodi:nodetypes="cccc" inkscape:connector-curvature="0" id="path890" d="m 126.08649,235.48424 31.22083,44.45 -20.6375,-55.03334 z" style="fill:#000000;stroke-width:0.52917194;stroke-dashoffset:20.00012016" />
<path style="fill:#242424;stroke-width:0.52917194;stroke-dashoffset:20.00012016" d="M 105.44871,279.93423 136.66957,224.9009 105.44871,180.45091 Z" id="path892" inkscape:connector-curvature="0" sodipodi:nodetypes="cccc" />
<rect y="279.93423" x="105.44871" height="55.033337" width="31.220831" id="rect894" style="fill:#242424;stroke-width:0.5291456;stroke-dashoffset:20.00012016" />
<rect y="279.93423" x="136.66954" height="44.450001" width="20.637499" id="rect896" style="fill:#000000;stroke-width:0.52916145;stroke-dashoffset:20.00012016" />
<rect style="fill:#000000;stroke-width:0.52917188;stroke-dashoffset:20.00012016" id="rect898" width="31.220833" height="44.450062" x="126.08543" y="334.96756" />
<path style="fill:#000000;stroke-width:0.52917194;stroke-dashoffset:20.00012016" d="m 188.52837,224.90087 h -10.58333 l 31.22083,-44.44999 z" id="path904" inkscape:connector-curvature="0" sodipodi:nodetypes="cccc" />
<path style="fill:#000000;stroke-width:0.52917194;stroke-dashoffset:20.00012016" d="m 177.94504,235.48421 31.22083,44.45 -20.6375,-55.03334 z" id="path906" inkscape:connector-curvature="0" sodipodi:nodetypes="cccc" />
<path sodipodi:nodetypes="cccc" inkscape:connector-curvature="0" id="path908" d="M 157.30704,279.9342 188.5279,224.90087 157.30704,180.45088 Z" style="fill:#242424;stroke-width:0.52917194;stroke-dashoffset:20.00012016" />
<rect style="fill:#242424;stroke-width:0.5291456;stroke-dashoffset:20.00012016" id="rect910" width="31.220831" height="55.033337" x="157.30704" y="279.9342" />
<rect style="fill:#000000;stroke-width:0.52916145;stroke-dashoffset:20.00012016" id="rect912" width="20.637499" height="44.450001" x="188.52837" y="279.9342" />
<rect y="334.96753" x="177.94453" height="44.450062" width="31.220833" id="rect914" style="fill:#000000;stroke-width:0.52917188;stroke-dashoffset:20.00012016" />
<path sodipodi:nodetypes="cccc" inkscape:connector-curvature="0" id="path920" d="m 240.38652,224.90087 h -10.58333 l 31.22083,-44.44999 z" style="fill:#000000;stroke-width:0.52917194;stroke-dashoffset:20.00012016" />
<path sodipodi:nodetypes="cccc" inkscape:connector-curvature="0" id="path922" d="m 229.80319,235.48421 31.22083,44.45 -20.6375,-55.03334 z" style="fill:#000000;stroke-width:0.52917194;stroke-dashoffset:20.00012016" />
<path style="fill:#242424;stroke-width:0.52917194;stroke-dashoffset:20.00012016" d="m 209.16537,279.9342 31.22086,-55.03333 -31.22086,-44.44999 z" id="path924" inkscape:connector-curvature="0" sodipodi:nodetypes="cccc" />
<rect y="279.9342" x="209.16537" height="55.033337" width="31.220831" id="rect926" style="fill:#242424;stroke-width:0.5291456;stroke-dashoffset:20.00012016" />
<rect y="279.9342" x="240.38652" height="44.450001" width="20.637499" id="rect928" style="fill:#000000;stroke-width:0.52916145;stroke-dashoffset:20.00012016" />
<rect style="fill:#000000;stroke-width:0.52917188;stroke-dashoffset:20.00012016" id="rect930" width="31.220833" height="44.450062" x="229.80287" y="334.96753" />
<path style="fill:#000000;stroke-width:0.52917194;stroke-dashoffset:20.00012016" d="m 292.24509,224.90087 h -10.58333 l 31.22083,-44.44999 z" id="path936" inkscape:connector-curvature="0" sodipodi:nodetypes="cccc" />
<path style="fill:#000000;stroke-width:0.52917194;stroke-dashoffset:20.00012016" d="m 281.66176,235.48421 31.22083,44.45 -20.6375,-55.03334 z" id="path938" inkscape:connector-curvature="0" sodipodi:nodetypes="cccc" />
<path sodipodi:nodetypes="cccc" inkscape:connector-curvature="0" id="path940" d="M 261.0237,279.9342 292.24456,224.90087 261.0237,180.45088 Z" style="fill:#242424;stroke-width:0.52917194;stroke-dashoffset:20.00012016" />
<rect style="fill:#242424;stroke-width:0.5291456;stroke-dashoffset:20.00012016" id="rect942" width="31.220831" height="55.033337" x="261.02371" y="279.9342" />
<rect style="fill:#000000;stroke-width:0.52916145;stroke-dashoffset:20.00012016" id="rect944" width="20.637499" height="44.450001" x="292.24454" y="279.9342" />
<rect y="334.96753" x="281.66119" height="44.450062" width="31.220833" id="rect946" style="fill:#000000;stroke-width:0.52917188;stroke-dashoffset:20.00012016" />
<g id="g891" transform="matrix(0.98989903,0,0,0.98989903,55.40453,-8.7580874)" style="stroke-width:1.01020408">
<path transform="matrix(0.35966796,-0.36011408,0.35966796,0.36011408,-210.20803,683.33909)" d="m 575.10999,149.89999 -27.32051,7.32051 -20,-20 7.32051,-27.32051 27.3205,-7.3205 20,20 z" inkscape:randomized="0" inkscape:rounded="0" inkscape:flatsided="true" sodipodi:arg2="1.3089969" sodipodi:arg1="0.78539816" sodipodi:r2="20" sodipodi:r1="28.284271" sodipodi:cy="129.89999" sodipodi:cx="555.10999" sodipodi:sides="6" id="path2230-81-3-8" style="fill:#000000;stroke-width:1.05030549" sodipodi:type="star" />
<path sodipodi:type="star" style="fill:#000000;stroke-width:1.08437741" id="path2305-4" sodipodi:sides="6" sodipodi:cx="555.10999" sodipodi:cy="129.89999" sodipodi:r1="28.284271" sodipodi:r2="20" sodipodi:arg1="0.78539816" sodipodi:arg2="1.3089969" inkscape:flatsided="true" inkscape:rounded="0" inkscape:randomized="0" d="m 575.10999,149.89999 -27.32051,7.32051 -20,-20 7.32051,-27.32051 27.3205,-7.3205 20,20 z" transform="matrix(0.34836695,-0.34879904,0.34836695,0.34879904,-202.01475,704.25873)" />
<path transform="matrix(0.3935677,-0.39398838,0.3935677,0.39398838,-255.68776,711.39094)" d="m 575.10999,149.89999 -27.32051,7.32051 -20,-20 7.32051,-27.32051 27.3205,-7.3205 20,20 z" inkscape:randomized="0" inkscape:rounded="0" inkscape:flatsided="true" sodipodi:arg2="1.3089969" sodipodi:arg1="0.78539816" sodipodi:r2="20" sodipodi:r1="28.284271" sodipodi:cy="129.89999" sodipodi:cx="555.10999" sodipodi:sides="6" id="path2230-81-8" style="fill:#242424;stroke-width:0.95992023" sodipodi:type="star" />
</g>
<g style="stroke-width:1.01020408" transform="matrix(0.98989903,0,0,0.98989903,107.26286,-8.7580874)" id="g901">
<path sodipodi:type="star" style="fill:#000000;stroke-width:1.05030549" id="path895" sodipodi:sides="6" sodipodi:cx="555.10999" sodipodi:cy="129.89999" sodipodi:r1="28.284271" sodipodi:r2="20" sodipodi:arg1="0.78539816" sodipodi:arg2="1.3089969" inkscape:flatsided="true" inkscape:rounded="0" inkscape:randomized="0" d="m 575.10999,149.89999 -27.32051,7.32051 -20,-20 7.32051,-27.32051 27.3205,-7.3205 20,20 z" transform="matrix(0.35966796,-0.36011408,0.35966796,0.36011408,-210.20803,683.33909)" />
<path transform="matrix(0.34836695,-0.34879904,0.34836695,0.34879904,-202.01475,704.25873)" d="m 575.10999,149.89999 -27.32051,7.32051 -20,-20 7.32051,-27.32051 27.3205,-7.3205 20,20 z" inkscape:randomized="0" inkscape:rounded="0" inkscape:flatsided="true" sodipodi:arg2="1.3089969" sodipodi:arg1="0.78539816" sodipodi:r2="20" sodipodi:r1="28.284271" sodipodi:cy="129.89999" sodipodi:cx="555.10999" sodipodi:sides="6" id="path897" style="fill:#000000;stroke-width:1.08437741" sodipodi:type="star" />
<path sodipodi:type="star" style="fill:#242424;stroke-width:0.95992023" id="path899" sodipodi:sides="6" sodipodi:cx="555.10999" sodipodi:cy="129.89999" sodipodi:r1="28.284271" sodipodi:r2="20" sodipodi:arg1="0.78539816" sodipodi:arg2="1.3089969" inkscape:flatsided="true" inkscape:rounded="0" inkscape:randomized="0" d="m 575.10999,149.89999 -27.32051,7.32051 -20,-20 7.32051,-27.32051 27.3205,-7.3205 20,20 z" transform="matrix(0.3935677,-0.39398838,0.3935677,0.39398838,-255.68776,711.39094)" />
</g>
<g style="stroke-width:1.01020408" transform="matrix(0.98989903,0,0,0.98989903,159.12119,-8.7580874)" id="g911">
<path sodipodi:type="star" style="fill:#000000;stroke-width:1.05030549" id="path905" sodipodi:sides="6" sodipodi:cx="555.10999" sodipodi:cy="129.89999" sodipodi:r1="28.284271" sodipodi:r2="20" sodipodi:arg1="0.78539816" sodipodi:arg2="1.3089969" inkscape:flatsided="true" inkscape:rounded="0" inkscape:randomized="0" d="m 575.10999,149.89999 -27.32051,7.32051 -20,-20 7.32051,-27.32051 27.3205,-7.3205 20,20 z" transform="matrix(0.35966796,-0.36011408,0.35966796,0.36011408,-210.20803,683.33909)" />
<path transform="matrix(0.34836695,-0.34879904,0.34836695,0.34879904,-202.01475,704.25873)" d="m 575.10999,149.89999 -27.32051,7.32051 -20,-20 7.32051,-27.32051 27.3205,-7.3205 20,20 z" inkscape:randomized="0" inkscape:rounded="0" inkscape:flatsided="true" sodipodi:arg2="1.3089969" sodipodi:arg1="0.78539816" sodipodi:r2="20" sodipodi:r1="28.284271" sodipodi:cy="129.89999" sodipodi:cx="555.10999" sodipodi:sides="6" id="path907" style="fill:#000000;stroke-width:1.08437741" sodipodi:type="star" />
<path sodipodi:type="star" style="fill:#242424;stroke-width:0.95992023" id="path909" sodipodi:sides="6" sodipodi:cx="555.10999" sodipodi:cy="129.89999" sodipodi:r1="28.284271" sodipodi:r2="20" sodipodi:arg1="0.78539816" sodipodi:arg2="1.3089969" inkscape:flatsided="true" inkscape:rounded="0" inkscape:randomized="0" d="m 575.10999,149.89999 -27.32051,7.32051 -20,-20 7.32051,-27.32051 27.3205,-7.3205 20,20 z" transform="matrix(0.3935677,-0.39398838,0.3935677,0.39398838,-255.68776,711.39094)" />
</g>
<g id="g921" transform="matrix(0.98989903,0,0,0.98989903,210.97952,-8.7580874)" style="stroke-width:1.01020408">
<path transform="matrix(0.35966796,-0.36011408,0.35966796,0.36011408,-210.20803,683.33909)" d="m 575.10999,149.89999 -27.32051,7.32051 -20,-20 7.32051,-27.32051 27.3205,-7.3205 20,20 z" inkscape:randomized="0" inkscape:rounded="0" inkscape:flatsided="true" sodipodi:arg2="1.3089969" sodipodi:arg1="0.78539816" sodipodi:r2="20" sodipodi:r1="28.284271" sodipodi:cy="129.89999" sodipodi:cx="555.10999" sodipodi:sides="6" id="path915" style="fill:#000000;stroke-width:1.05030549" sodipodi:type="star" />
<path sodipodi:type="star" style="fill:#000000;stroke-width:1.08437741" id="path917" sodipodi:sides="6" sodipodi:cx="555.10999" sodipodi:cy="129.89999" sodipodi:r1="28.284271" sodipodi:r2="20" sodipodi:arg1="0.78539816" sodipodi:arg2="1.3089969" inkscape:flatsided="true" inkscape:rounded="0" inkscape:randomized="0" d="m 575.10999,149.89999 -27.32051,7.32051 -20,-20 7.32051,-27.32051 27.3205,-7.3205 20,20 z" transform="matrix(0.34836695,-0.34879904,0.34836695,0.34879904,-202.01475,704.25873)" />
<path transform="matrix(0.3935677,-0.39398838,0.3935677,0.39398838,-255.68776,711.39094)" d="m 575.10999,149.89999 -27.32051,7.32051 -20,-20 7.32051,-27.32051 27.3205,-7.3205 20,20 z" inkscape:randomized="0" inkscape:rounded="0" inkscape:flatsided="true" sodipodi:arg2="1.3089969" sodipodi:arg1="0.78539816" sodipodi:r2="20" sodipodi:r1="28.284271" sodipodi:cy="129.89999" sodipodi:cx="555.10999" sodipodi:sides="6" id="path919" style="fill:#242424;stroke-width:0.95992023" sodipodi:type="star" />
</g>
<g id="g931" transform="matrix(0.98989903,0,0,0.98989903,262.83783,-8.7580874)" style="stroke-width:1.01020408">
<path transform="matrix(0.35966796,-0.36011408,0.35966796,0.36011408,-210.20803,683.33909)" d="m 575.10999,149.89999 -27.32051,7.32051 -20,-20 7.32051,-27.32051 27.3205,-7.3205 20,20 z" inkscape:randomized="0" inkscape:rounded="0" inkscape:flatsided="true" sodipodi:arg2="1.3089969" sodipodi:arg1="0.78539816" sodipodi:r2="20" sodipodi:r1="28.284271" sodipodi:cy="129.89999" sodipodi:cx="555.10999" sodipodi:sides="6" id="path925" style="fill:#000000;stroke-width:1.05030549" sodipodi:type="star" />
<path sodipodi:type="star" style="fill:#000000;stroke-width:1.08437741" id="path927" sodipodi:sides="6" sodipodi:cx="555.10999" sodipodi:cy="129.89999" sodipodi:r1="28.284271" sodipodi:r2="20" sodipodi:arg1="0.78539816" sodipodi:arg2="1.3089969" inkscape:flatsided="true" inkscape:rounded="0" inkscape:randomized="0" d="m 575.10999,149.89999 -27.32051,7.32051 -20,-20 7.32051,-27.32051 27.3205,-7.3205 20,20 z" transform="matrix(0.34836695,-0.34879904,0.34836695,0.34879904,-202.01475,704.25873)" />
<path transform="matrix(0.3935677,-0.39398838,0.3935677,0.39398838,-255.68776,711.39094)" d="m 575.10999,149.89999 -27.32051,7.32051 -20,-20 7.32051,-27.32051 27.3205,-7.3205 20,20 z" inkscape:randomized="0" inkscape:rounded="0" inkscape:flatsided="true" sodipodi:arg2="1.3089969" sodipodi:arg1="0.78539816" sodipodi:r2="20" sodipodi:r1="28.284271" sodipodi:cy="129.89999" sodipodi:cx="555.10999" sodipodi:sides="6" id="path929" style="fill:#242424;stroke-width:0.95992023" sodipodi:type="star" />
</g>
<rect y="609.07605" x="84.282005" height="20.637499" width="20.637503" id="rect945" style="fill:#242424;stroke-width:0.52914554;stroke-dashoffset:20.00012016" />
<rect y="609.07605" x="104.91949" height="10.054168" width="10.054154" id="rect947" style="fill:#000000;stroke-width:0.52916139;stroke-dashoffset:20.00012016" />
<rect style="fill:#000000;stroke-width:0.52917188;stroke-dashoffset:20.00012016" id="rect949" width="20.637495" height="10.054164" x="94.336143" y="629.71356" />
<circle r="5.0270834" cy="644.7948" cx="99.627876" id="circle951" style="fill:#000000;stroke-width:0.52915877;stroke-dashoffset:20.00012016" />
<circle r="10.318749" cy="655.11353" cx="94.600777" id="circle953" style="fill:#242424;stroke-width:0.52916402;stroke-dashoffset:20.00012016" />
<circle r="5.0270834" style="fill:#000000;stroke-width:0.52916133;stroke-dashoffset:20.00012016" id="circle955" cx="109.94665" cy="660.14062" />
<path sodipodi:nodetypes="cccc" inkscape:connector-curvature="0" id="path957" d="M 104.91951,588.43857 H 94.336178 L 114.97368,578.3844 Z" style="fill:#000000;stroke-width:0.52917194;stroke-dashoffset:20.00012016" />
<path sodipodi:nodetypes="cccc" inkscape:connector-curvature="0" id="path959" d="m 94.336178,599.0219 20.637502,10.05417 -10.05417,-20.6375 z" style="fill:#000000;stroke-width:0.52917194;stroke-dashoffset:20.00012016" />
<path style="fill:#242424;stroke-width:0.52917194;stroke-dashoffset:20.00012016" d="M 84.282007,609.07607 104.91951,588.43857 84.282007,578.3844 Z" id="path961" inkscape:connector-curvature="0" sodipodi:nodetypes="cccc" />
<path sodipodi:type="star" style="fill:#000000;stroke-width:2.23157048" id="path963" sodipodi:sides="6" sodipodi:cx="555.10999" sodipodi:cy="129.89999" sodipodi:r1="28.284271" sodipodi:r2="20" sodipodi:arg1="0.78539816" sodipodi:arg2="1.3089969" inkscape:flatsided="true" inkscape:rounded="0" inkscape:randomized="0" d="m 575.10999,149.89999 -27.32051,7.32051 -20,-20 7.32051,-27.32051 27.3205,-7.3205 20,20 z" transform="matrix(0.16757054,-0.1677784,0.16757054,0.1677784,-6.5164728,762.95837)" />
<path transform="matrix(0.25796874,-0.25824447,0.25796874,0.25824447,-82.110307,795.61343)" d="m 575.10999,149.89999 -27.32051,7.32051 -20,-20 7.32051,-27.32051 27.3205,-7.3205 20,20 z" inkscape:randomized="0" inkscape:rounded="0" inkscape:flatsided="true" sodipodi:arg2="1.3089969" sodipodi:arg1="0.78539816" sodipodi:r2="20" sodipodi:r1="28.284271" sodipodi:cy="129.89999" sodipodi:cx="555.10999" sodipodi:sides="6" id="path965" style="fill:#242424;stroke-width:1.44970083" sodipodi:type="star" />
<path sodipodi:type="star" style="fill:#000000;stroke-width:2.02654791" id="path967" sodipodi:sides="6" sodipodi:cx="555.10999" sodipodi:cy="129.89999" sodipodi:r1="28.284271" sodipodi:r2="20" sodipodi:arg1="0.78539816" sodipodi:arg2="1.3089969" inkscape:flatsided="true" inkscape:rounded="0" inkscape:randomized="0" d="m 575.10999,149.89999 -27.32051,7.32051 -20,-20 7.32051,-27.32051 27.3205,-7.3205 20,20 z" transform="matrix(0.18452337,-0.18475226,0.18452337,0.18475226,-19.259183,755.41796)" />
<rect style="fill:#242424;stroke-width:0.52914554;stroke-dashoffset:20.00012016" id="rect971" width="20.637503" height="20.637499" x="114.97368" y="609.07605" />
<rect style="fill:#000000;stroke-width:0.52916139;stroke-dashoffset:20.00012016" id="rect973" width="10.054154" height="10.054168" x="135.61116" y="609.07605" />
<rect y="629.71356" x="125.02782" height="10.054164" width="20.637495" id="rect975" style="fill:#000000;stroke-width:0.52917188;stroke-dashoffset:20.00012016" />
<circle style="fill:#000000;stroke-width:0.52915877;stroke-dashoffset:20.00012016" id="circle977" cx="130.31955" cy="644.7948" r="5.0270834" />
<circle style="fill:#242424;stroke-width:0.52916402;stroke-dashoffset:20.00012016" id="circle979" cx="125.29245" cy="655.11353" r="10.318749" />
<circle cy="660.14062" cx="140.63832" id="circle981" style="fill:#000000;stroke-width:0.52916133;stroke-dashoffset:20.00012016" r="5.0270834" />
<path style="fill:#000000;stroke-width:0.52917194;stroke-dashoffset:20.00012016" d="m 135.61118,588.43857 h -10.58333 l 20.6375,-10.05417 z" id="path983" inkscape:connector-curvature="0" sodipodi:nodetypes="cccc" />
<path style="fill:#000000;stroke-width:0.52917194;stroke-dashoffset:20.00012016" d="m 125.02785,599.0219 20.6375,10.05417 -10.05417,-20.6375 z" id="path985" inkscape:connector-curvature="0" sodipodi:nodetypes="cccc" />
<path sodipodi:nodetypes="cccc" inkscape:connector-curvature="0" id="path987" d="m 114.97368,609.07607 20.6375,-20.6375 -20.6375,-10.05417 z" style="fill:#242424;stroke-width:0.52917194;stroke-dashoffset:20.00012016" />
<path transform="matrix(0.16757054,-0.1677784,0.16757054,0.1677784,24.1752,762.95837)" d="m 575.10999,149.89999 -27.32051,7.32051 -20,-20 7.32051,-27.32051 27.3205,-7.3205 20,20 z" inkscape:randomized="0" inkscape:rounded="0" inkscape:flatsided="true" sodipodi:arg2="1.3089969" sodipodi:arg1="0.78539816" sodipodi:r2="20" sodipodi:r1="28.284271" sodipodi:cy="129.89999" sodipodi:cx="555.10999" sodipodi:sides="6" id="path989" style="fill:#000000;stroke-width:2.23157048" sodipodi:type="star" />
<path sodipodi:type="star" style="fill:#242424;stroke-width:1.44970083" id="path991" sodipodi:sides="6" sodipodi:cx="555.10999" sodipodi:cy="129.89999" sodipodi:r1="28.284271" sodipodi:r2="20" sodipodi:arg1="0.78539816" sodipodi:arg2="1.3089969" inkscape:flatsided="true" inkscape:rounded="0" inkscape:randomized="0" d="m 575.10999,149.89999 -27.32051,7.32051 -20,-20 7.32051,-27.32051 27.3205,-7.3205 20,20 z" transform="matrix(0.25796874,-0.25824447,0.25796874,0.25824447,-51.418634,795.61343)" />
<path transform="matrix(0.18452337,-0.18475226,0.18452337,0.18475226,11.43249,755.41796)" d="m 575.10999,149.89999 -27.32051,7.32051 -20,-20 7.32051,-27.32051 27.3205,-7.3205 20,20 z" inkscape:randomized="0" inkscape:rounded="0" inkscape:flatsided="true" sodipodi:arg2="1.3089969" sodipodi:arg1="0.78539816" sodipodi:r2="20" sodipodi:r1="28.284271" sodipodi:cy="129.89999" sodipodi:cx="555.10999" sodipodi:sides="6" id="path993" style="fill:#000000;stroke-width:2.02654791" sodipodi:type="star" />
<rect y="609.07605" x="145.66534" height="20.637499" width="20.637503" id="rect997" style="fill:#242424;stroke-width:0.52914554;stroke-dashoffset:20.00012016" />
<rect y="609.07605" x="166.30283" height="10.054168" width="10.054154" id="rect999" style="fill:#000000;stroke-width:0.52916139;stroke-dashoffset:20.00012016" />
<rect style="fill:#000000;stroke-width:0.52917188;stroke-dashoffset:20.00012016" id="rect1001" width="20.637495" height="10.054164" x="155.71948" y="629.71356" />
<circle r="5.0270834" cy="644.7948" cx="161.01122" id="circle1003" style="fill:#000000;stroke-width:0.52915877;stroke-dashoffset:20.00012016" />
<circle r="10.318749" cy="655.11353" cx="155.98412" id="circle1005" style="fill:#242424;stroke-width:0.52916402;stroke-dashoffset:20.00012016" />
<circle r="5.0270834" style="fill:#000000;stroke-width:0.52916133;stroke-dashoffset:20.00012016" id="circle1007" cx="171.32999" cy="660.14062" />
<path sodipodi:nodetypes="cccc" inkscape:connector-curvature="0" id="path1009" d="m 166.30285,588.43857 h -10.58333 l 20.6375,-10.05417 z" style="fill:#000000;stroke-width:0.52917194;stroke-dashoffset:20.00012016" />
<path sodipodi:nodetypes="cccc" inkscape:connector-curvature="0" id="path1011" d="m 155.71952,599.0219 20.6375,10.05417 -10.05417,-20.6375 z" style="fill:#000000;stroke-width:0.52917194;stroke-dashoffset:20.00012016" />
<path style="fill:#242424;stroke-width:0.52917194;stroke-dashoffset:20.00012016" d="m 145.66535,609.07607 20.6375,-20.6375 -20.6375,-10.05417 z" id="path1013" inkscape:connector-curvature="0" sodipodi:nodetypes="cccc" />
<path sodipodi:type="star" style="fill:#000000;stroke-width:2.23157048" id="path1015" sodipodi:sides="6" sodipodi:cx="555.10999" sodipodi:cy="129.89999" sodipodi:r1="28.284271" sodipodi:r2="20" sodipodi:arg1="0.78539816" sodipodi:arg2="1.3089969" inkscape:flatsided="true" inkscape:rounded="0" inkscape:randomized="0" d="m 575.10999,149.89999 -27.32051,7.32051 -20,-20 7.32051,-27.32051 27.3205,-7.3205 20,20 z" transform="matrix(0.16757054,-0.1677784,0.16757054,0.1677784,54.86687,762.95837)" />
<path transform="matrix(0.25796874,-0.25824447,0.25796874,0.25824447,-20.726964,795.61343)" d="m 575.10999,149.89999 -27.32051,7.32051 -20,-20 7.32051,-27.32051 27.3205,-7.3205 20,20 z" inkscape:randomized="0" inkscape:rounded="0" inkscape:flatsided="true" sodipodi:arg2="1.3089969" sodipodi:arg1="0.78539816" sodipodi:r2="20" sodipodi:r1="28.284271" sodipodi:cy="129.89999" sodipodi:cx="555.10999" sodipodi:sides="6" id="path1017" style="fill:#242424;stroke-width:1.44970083" sodipodi:type="star" />
<path sodipodi:type="star" style="fill:#000000;stroke-width:2.02654791" id="path1019" sodipodi:sides="6" sodipodi:cx="555.10999" sodipodi:cy="129.89999" sodipodi:r1="28.284271" sodipodi:r2="20" sodipodi:arg1="0.78539816" sodipodi:arg2="1.3089969" inkscape:flatsided="true" inkscape:rounded="0" inkscape:randomized="0" d="m 575.10999,149.89999 -27.32051,7.32051 -20,-20 7.32051,-27.32051 27.3205,-7.3205 20,20 z" transform="matrix(0.18452337,-0.18475226,0.18452337,0.18475226,42.12416,755.41796)" />
<rect style="fill:#242424;stroke-width:0.52914554;stroke-dashoffset:20.00012016" id="rect1023" width="20.637503" height="20.637499" x="176.35701" y="609.07605" />
<rect style="fill:#000000;stroke-width:0.52916139;stroke-dashoffset:20.00012016" id="rect1025" width="10.054154" height="10.054168" x="196.99449" y="609.07605" />
<rect y="629.71356" x="186.41115" height="10.054164" width="20.637495" id="rect1027" style="fill:#000000;stroke-width:0.52917188;stroke-dashoffset:20.00012016" />
<circle style="fill:#000000;stroke-width:0.52915877;stroke-dashoffset:20.00012016" id="circle1029" cx="191.70288" cy="644.7948" r="5.0270834" />
<circle style="fill:#242424;stroke-width:0.52916402;stroke-dashoffset:20.00012016" id="circle1031" cx="186.67578" cy="655.11353" r="10.318749" />
<circle cy="660.14062" cx="202.02165" id="circle1033" style="fill:#000000;stroke-width:0.52916133;stroke-dashoffset:20.00012016" r="5.0270834" />
<path style="fill:#000000;stroke-width:0.52917194;stroke-dashoffset:20.00012016" d="m 196.99452,588.43857 h -10.58333 l 20.6375,-10.05417 z" id="path1035" inkscape:connector-curvature="0" sodipodi:nodetypes="cccc" />
<path style="fill:#000000;stroke-width:0.52917194;stroke-dashoffset:20.00012016" d="m 186.41119,599.0219 20.6375,10.05417 -10.05417,-20.6375 z" id="path1037" inkscape:connector-curvature="0" sodipodi:nodetypes="cccc" />
<path sodipodi:nodetypes="cccc" inkscape:connector-curvature="0" id="path1039" d="m 176.35702,609.07607 20.6375,-20.6375 -20.6375,-10.05417 z" style="fill:#242424;stroke-width:0.52917194;stroke-dashoffset:20.00012016" />
<path transform="matrix(0.16757054,-0.1677784,0.16757054,0.1677784,85.55854,762.95837)" d="m 575.10999,149.89999 -27.32051,7.32051 -20,-20 7.32051,-27.32051 27.3205,-7.3205 20,20 z" inkscape:randomized="0" inkscape:rounded="0" inkscape:flatsided="true" sodipodi:arg2="1.3089969" sodipodi:arg1="0.78539816" sodipodi:r2="20" sodipodi:r1="28.284271" sodipodi:cy="129.89999" sodipodi:cx="555.10999" sodipodi:sides="6" id="path1041" style="fill:#000000;stroke-width:2.23157048" sodipodi:type="star" />
<path sodipodi:type="star" style="fill:#242424;stroke-width:1.44970083" id="path1043" sodipodi:sides="6" sodipodi:cx="555.10999" sodipodi:cy="129.89999" sodipodi:r1="28.284271" sodipodi:r2="20" sodipodi:arg1="0.78539816" sodipodi:arg2="1.3089969" inkscape:flatsided="true" inkscape:rounded="0" inkscape:randomized="0" d="m 575.10999,149.89999 -27.32051,7.32051 -20,-20 7.32051,-27.32051 27.3205,-7.3205 20,20 z" transform="matrix(0.25796874,-0.25824447,0.25796874,0.25824447,9.964706,795.61343)" />
<path transform="matrix(0.18452337,-0.18475226,0.18452337,0.18475226,72.81583,755.41796)" d="m 575.10999,149.89999 -27.32051,7.32051 -20,-20 7.32051,-27.32051 27.3205,-7.3205 20,20 z" inkscape:randomized="0" inkscape:rounded="0" inkscape:flatsided="true" sodipodi:arg2="1.3089969" sodipodi:arg1="0.78539816" sodipodi:r2="20" sodipodi:r1="28.284271" sodipodi:cy="129.89999" sodipodi:cx="555.10999" sodipodi:sides="6" id="path1045" style="fill:#000000;stroke-width:2.02654791" sodipodi:type="star" />
</g>
</svg>
