<?xml version="1.0" encoding="UTF-8" standalone="no"?>
<!-- Created with Inkscape (http://www.inkscape.org/) -->

<svg
 xmlns:dc="http://purl.org/dc/elements/1.1/"
 xmlns:cc="http://creativecommons.org/ns#"
 xmlns:rdf="http://www.w3.org/1999/02/22-rdf-syntax-ns#"
 xmlns:svg="http://www.w3.org/2000/svg"
 xmlns="http://www.w3.org/2000/svg"
 xmlns:sodipodi="http://sodipodi.sourceforge.net/DTD/sodipodi-0.dtd"
 xmlns:inkscape="http://www.inkscape.org/namespaces/inkscape"
 width="34.7"
 height="25.62"
 viewBox="0 0 34.7 25.62"
 id="svg2"
 version="1.1"
 inkscape:version="0.92.3 (2405546, 2018-03-11)"
 sodipodi:docname="actioncardbackground.abilityshieldicon.svg">
<defs
 id="defs4" />
<sodipodi:namedview
 id="base"
 pagecolor="#202020"
 bordercolor="#666666"
 borderopacity="1.0"
 inkscape:pageopacity="0"
 inkscape:pageshadow="2"
 inkscape:zoom="1.25"
 inkscape:cx="105.6"
 inkscape:cy="18.289"
 inkscape:document-units="px"
 inkscape:current-layer="layer1"
 showgrid="false"
 units="px"
 inkscape:object-nodes="true"
 inkscape:snap-global="true"
 inkscape:snap-bbox="true"
 inkscape:snap-bbox-midpoints="true"
 inkscape:snap-bbox-edge-midpoints="true"
 inkscape:bbox-nodes="true"
 showguides="false"
 inkscape:guide-bbox="true"
 inkscape:snap-center="true"
 inkscape:object-paths="false"
 inkscape:snap-page="true"
 inkscape:snap-object-midpoints="false"
 inkscape:measure-start="766.99,87.81"
 inkscape:measure-end="767.557,86.2241"
 inkscape:snap-midpoints="false"
 inkscape:snap-nodes="true"
 inkscape:snap-others="false"
 inkscape:bbox-paths="false"
 inkscape:snap-smooth-nodes="false"
 inkscape:snap-intersection-paths="false"
 inkscape:snap-grids="true"
 fit-margin-top="0"
 fit-margin-left="0"
 fit-margin-right="0"
 fit-margin-bottom="0" />
<metadata
 id="metadata7">
<rdf:RDF>
<cc:Work
 rdf:about="">
<dc:format>image/svg+xml</dc:format>
<dc:type
 rdf:resource="http://purl.org/dc/dcmitype/StillImage" />
<dc:title></dc:title>
</cc:Work>
</rdf:RDF>
</metadata>
<g
 inkscape:label="Layer 1"
 inkscape:groupmode="layer"
 id="layer1"
 transform="translate(-770.97,-831.11)">
<path
 style="color:#000000;fill:#c0c0c0;stroke-width:1.99999;stroke-dashoffset:20.00012;paint-order:stroke markers fill"
 d="m 788.27,831.14 c -3.4,0 -6.9,1.17 -9.6,3.51 -5.4,4.46 -6.9,11.96 -3.9,18.11 l -3.8,2.24 1,1.73 5.6,-3.26 -1,-1.73 h -0.1 c -2.5,-5.32 -1.2,-11.74 3.4,-15.59 4.9,-4.06 11.9,-4.06 16.8,0 4.7,4 5.9,10.78 3,16.21 l -0.6,1.08 5.6,3.26 1,-1.72 -3.9,-2.29 c 2.9,-6.14 1.4,-13.62 -3.9,-18.07 -2.7,-2.34 -6.2,-3.51 -9.6,-3.51 z m 0,8.89 -5.3,3.06 v 6.11 l 5.3,3.05 5.3,-3.05 v -6.11 z"
 id="path2416"
 inkscape:connector-curvature="0" />
</g>
</svg>
