<?xml version="1.0" encoding="UTF-8" standalone="no"?>
<!-- Created with Inkscape (http://www.inkscape.org/) -->

<svg
 xmlns:dc="http://purl.org/dc/elements/1.1/"
 xmlns:cc="http://creativecommons.org/ns#"
 xmlns:rdf="http://www.w3.org/1999/02/22-rdf-syntax-ns#"
 xmlns:svg="http://www.w3.org/2000/svg"
 xmlns="http://www.w3.org/2000/svg"
 xmlns:sodipodi="http://sodipodi.sourceforge.net/DTD/sodipodi-0.dtd"
 xmlns:inkscape="http://www.inkscape.org/namespaces/inkscape"
 width="40"
 height="40"
 viewBox="0 0 40 40"
 id="svg2"
 version="1.1"
 inkscape:version="0.92.3 (2405546, 2018-03-11)"
 sodipodi:docname="actioncardbackground.hullboosticon.svg">
<defs
 id="defs4" />
<sodipodi:namedview
 id="base"
 pagecolor="#202020"
 bordercolor="#666666"
 borderopacity="1.0"
 inkscape:pageopacity="0"
 inkscape:pageshadow="2"
 inkscape:zoom="7.4506"
 inkscape:cx="35.989"
 inkscape:cy="6.4739"
 inkscape:document-units="px"
 inkscape:current-layer="layer1"
 showgrid="false"
 units="px"
 inkscape:object-nodes="true"
 inkscape:snap-global="false"
 inkscape:snap-bbox="true"
 inkscape:snap-bbox-midpoints="true"
 inkscape:snap-bbox-edge-midpoints="true"
 inkscape:bbox-nodes="true"
 showguides="false"
 inkscape:guide-bbox="true"
 inkscape:snap-center="true"
 inkscape:object-paths="false"
 inkscape:snap-page="true"
 inkscape:snap-object-midpoints="false"
 inkscape:measure-start="766.99,87.81"
 inkscape:measure-end="767.557,86.2241"
 inkscape:snap-midpoints="false"
 inkscape:snap-nodes="true"
 inkscape:snap-others="false"
 inkscape:bbox-paths="false"
 inkscape:snap-smooth-nodes="false"
 inkscape:snap-intersection-paths="false"
 inkscape:snap-grids="true"
 fit-margin-top="0"
 fit-margin-left="0"
 fit-margin-right="0"
 fit-margin-bottom="0" />
<metadata
 id="metadata7">
<rdf:RDF>
<cc:Work
 rdf:about="">
<dc:format>image/svg+xml</dc:format>
<dc:type
 rdf:resource="http://purl.org/dc/dcmitype/StillImage" />
<dc:title></dc:title>
</cc:Work>
</rdf:RDF>
</metadata>
<g
 inkscape:label="Layer 1"
 inkscape:groupmode="layer"
 id="layer1"
 transform="translate(-360.76,-844.77)">
<path
 style="fill:#c0c0c0;stroke-width:4.00003;stroke-dashoffset:20.00012;paint-order:stroke markers fill"
 d="m 388.16,846.37 c -9.2,0.71 -16.4,3.16 -23,6.17 5,9.84 7.4,20.17 8.2,30.62 7.7,-1.13 15.4,-1.85 22.9,-6.14 0,-9.94 -2.4,-21.51 -8.1,-30.65 z m -1.2,1.97 c 4.9,8.13 7.1,18.6 7.2,27.37 -6.3,3.55 -12.7,4.12 -19.1,5.12 -0.8,-9.2 -3,-18.46 -7.3,-27.34 5.6,-2.22 11.6,-4.34 19.2,-5.14 z m -1.1,2.17 v 0 c -6.1,0.7 -10.9,2.49 -15.5,4.13 3.7,7.81 5.6,15.89 6.4,23.85 5.1,-0.95 10.3,-1.2 15.5,-4.11 -0.3,-7.69 -2.3,-16.78 -6.3,-23.88 z m -1.9,2.31 a 1.5,1.5 0 0 1 1.5,1.5 1.5,1.5 0 0 1 -1.5,1.5 1.5,1.5 0 0 1 -1.5,-1.5 1.5,1.5 0 0 1 1.5,-1.5 z m -8.8,2.38 a 1.5,1.5 0 0 1 1.5,1.5 1.5,1.5 0 0 1 -1.5,1.5 1.5,1.5 0 0 1 -1.5,-1.5 1.5,1.5 0 0 1 1.5,-1.5 z m 13.3,15.64 a 1.5,1.5 0 0 1 1.5,1.5 1.5,1.5 0 0 1 -1.5,1.5 1.5,1.5 0 0 1 -1.5,-1.5 1.5,1.5 0 0 1 1.5,-1.5 z m -8.6,2.18 a 1.5,1.5 0 0 1 1.5,1.5 1.5,1.5 0 0 1 -1.5,1.5 1.5,1.5 0 0 1 -1.5,-1.5 1.5,1.5 0 0 1 1.5,-1.5 z"
 id="path2853"
 inkscape:connector-curvature="0" />
</g>
</svg>
