<?xml version="1.0" encoding="UTF-8" standalone="no"?>
<!-- Created with Inkscape (http://www.inkscape.org/) -->

<svg
 xmlns:dc="http://purl.org/dc/elements/1.1/"
 xmlns:cc="http://creativecommons.org/ns#"
 xmlns:rdf="http://www.w3.org/1999/02/22-rdf-syntax-ns#"
 xmlns:svg="http://www.w3.org/2000/svg"
 xmlns="http://www.w3.org/2000/svg"
 xmlns:sodipodi="http://sodipodi.sourceforge.net/DTD/sodipodi-0.dtd"
 xmlns:inkscape="http://www.inkscape.org/namespaces/inkscape"
 width="35.709"
 height="35.38"
 viewBox="0 0 35.709 35.38"
 id="svg2"
 version="1.1"
 inkscape:version="0.92.3 (2405546, 2018-03-11)"
 sodipodi:docname="actioncardbackground.ammoregenboosticon.svg">
<defs
 id="defs4" />
<sodipodi:namedview
 id="base"
 pagecolor="#202020"
 bordercolor="#666666"
 borderopacity="1.0"
 inkscape:pageopacity="0"
 inkscape:pageshadow="2"
 inkscape:zoom="1.9531"
 inkscape:cx="98.772"
 inkscape:cy="22.836"
 inkscape:document-units="px"
 inkscape:current-layer="layer1"
 showgrid="false"
 units="px"
 inkscape:object-nodes="true"
 inkscape:snap-global="true"
 inkscape:snap-bbox="true"
 inkscape:snap-bbox-midpoints="true"
 inkscape:snap-bbox-edge-midpoints="true"
 inkscape:bbox-nodes="true"
 showguides="false"
 inkscape:guide-bbox="true"
 inkscape:snap-center="true"
 inkscape:object-paths="false"
 inkscape:snap-page="true"
 inkscape:snap-object-midpoints="false"
 inkscape:measure-start="766.99,87.81"
 inkscape:measure-end="767.557,86.2241"
 inkscape:snap-midpoints="false"
 inkscape:snap-nodes="true"
 inkscape:snap-others="false"
 inkscape:bbox-paths="false"
 inkscape:snap-smooth-nodes="false"
 inkscape:snap-intersection-paths="false"
 inkscape:snap-grids="true"
 fit-margin-top="0"
 fit-margin-left="0"
 fit-margin-right="0"
 fit-margin-bottom="0" />
<metadata
 id="metadata7">
<rdf:RDF>
<cc:Work
 rdf:about="">
<dc:format>image/svg+xml</dc:format>
<dc:type
 rdf:resource="http://purl.org/dc/dcmitype/StillImage" />
<dc:title></dc:title>
</cc:Work>
</rdf:RDF>
</metadata>
<g
 inkscape:label="Layer 1"
 inkscape:groupmode="layer"
 id="layer1"
 transform="translate(-1057,-694.44)">
<path
 style="color:#000000;fill:#c0c0c0;stroke-width:2;stroke-dashoffset:20.00012;paint-order:stroke markers fill"
 d="m 1078.6,694.44 c -3.8,0 -5.9,7.74 -5.9,7.74 l 8.7,2.29 c 0,0 2.3,-8.76 -2,-9.92 -0.3,-0.1 -0.5,-0.11 -0.8,-0.11 z m 0.7,2.33 c 0.9,0.54 1.2,1.36 1.5,2.35 l -0.8,2.94 -2,-0.51 z m -13.5,0.1 c -1.5,0.1 -2.8,0.55 -3.8,1.55 -2,1.99 -1.9,5.3 -0.7,8.74 1,2.9 3,6.04 5.7,9.04 l 0.6,-2.33 c -2.1,-2.52 -3.6,-5.11 -4.4,-7.43 -1.1,-3.03 -1,-5.43 0.2,-6.61 0.6,-0.59 1.5,-0.92 2.6,-0.97 1.1,-0.1 2.5,0.19 4,0.72 0.4,0.16 0.9,0.35 1.3,0.56 0.2,-0.54 0.5,-1.17 0.8,-1.84 -0.5,-0.21 -0.9,-0.4 -1.4,-0.56 -1.7,-0.61 -3.4,-0.94 -4.9,-0.87 z m 18.2,4.59 c 0,0.73 -0.1,1.4 -0.2,1.96 0.4,0 0.9,0.12 1.3,0.19 3.1,0.59 5.1,1.91 5.6,3.52 0.3,1.25 -0.3,2.84 -1.7,4.46 0.3,0.63 0.6,1.26 0.9,1.88 2.1,-2.12 3.3,-4.52 2.7,-6.86 -0.7,-2.72 -3.7,-4.31 -7.2,-4.95 -0.5,-0.1 -0.9,-0.15 -1.4,-0.2 z m -13.6,1.73 c -2,0.65 -3.8,1.43 -5.4,2.32 0,0.1 0.1,0.18 0.1,0.28 0.2,0.51 0.4,1.04 0.7,1.59 1.2,-0.68 2.6,-1.29 4,-1.84 z m 1.8,0.98 -4.1,15.07 8.7,2.33 4.1,-15.07 z m 10.8,2.42 -0.1,0.38 -0.5,1.98 c 2,2.48 3.5,5.04 4.3,7.32 1.1,3.03 0.9,5.43 -0.2,6.61 -1.1,1.08 -3.2,1.27 -5.9,0.49 l -0.5,1.91 c 3.1,0.91 6,0.82 7.8,-0.98 2,-2 1.9,-5.31 0.7,-8.74 -1.1,-2.89 -3,-6 -5.6,-8.97 z m -6.5,0.79 1.9,0.52 -3,11.21 -1.9,-0.51 z m -16.6,1.81 c -2.1,2.13 -3.3,4.56 -2.7,6.92 0.7,2.48 3.2,4 6.4,4.75 l 0.5,-1.91 c -2.8,-0.64 -4.5,-1.87 -4.9,-3.36 -0.4,-1.26 0.2,-2.84 1.7,-4.47 -0.4,-0.65 -0.7,-1.29 -1,-1.93 z m 24.2,6.13 c -1.2,0.67 -2.5,1.29 -4,1.84 l -0.6,2.36 c 2,-0.66 3.7,-1.45 5.4,-2.33 -0.1,-0.1 -0.1,-0.16 -0.1,-0.25 -0.2,-0.51 -0.4,-1.06 -0.7,-1.62 z m -18.4,5.34 -1.6,5.79 6.8,1.81 1.5,-5.79 z m 8.7,2.33 -1.6,5.79 3.9,1.04 1.5,-5.8 z"
 id="path2303"
 inkscape:connector-curvature="0" />
</g>
</svg>
