<?xml version="1.0" encoding="UTF-8" standalone="no"?>
<!-- Created with Inkscape (http://www.inkscape.org/) -->

<svg
 xmlns:dc="http://purl.org/dc/elements/1.1/"
 xmlns:cc="http://creativecommons.org/ns#"
 xmlns:rdf="http://www.w3.org/1999/02/22-rdf-syntax-ns#"
 xmlns:svg="http://www.w3.org/2000/svg"
 xmlns="http://www.w3.org/2000/svg"
 xmlns:sodipodi="http://sodipodi.sourceforge.net/DTD/sodipodi-0.dtd"
 xmlns:inkscape="http://www.inkscape.org/namespaces/inkscape"
 width="34.9"
 height="34.74"
 viewBox="0 0 34.9 34.74"
 id="svg2"
 version="1.1"
 inkscape:version="0.92.3 (2405546, 2018-03-11)"
 sodipodi:docname="actioncardbackground.ammocapboosticon.svg">
<defs
 id="defs4" />
<sodipodi:namedview
 id="base"
 pagecolor="#202020"
 bordercolor="#666666"
 borderopacity="1.0"
 inkscape:pageopacity="0"
 inkscape:pageshadow="2"
 inkscape:zoom="1.9531"
 inkscape:cx="110.24"
 inkscape:cy="31.272"
 inkscape:document-units="px"
 inkscape:current-layer="layer1"
 showgrid="false"
 units="px"
 inkscape:object-nodes="true"
 inkscape:snap-global="true"
 inkscape:snap-bbox="true"
 inkscape:snap-bbox-midpoints="true"
 inkscape:snap-bbox-edge-midpoints="true"
 inkscape:bbox-nodes="true"
 showguides="false"
 inkscape:guide-bbox="true"
 inkscape:snap-center="true"
 inkscape:object-paths="false"
 inkscape:snap-page="true"
 inkscape:snap-object-midpoints="false"
 inkscape:measure-start="766.99,87.81"
 inkscape:measure-end="767.557,86.2241"
 inkscape:snap-midpoints="false"
 inkscape:snap-nodes="true"
 inkscape:snap-others="false"
 inkscape:bbox-paths="false"
 inkscape:snap-smooth-nodes="false"
 inkscape:snap-intersection-paths="false"
 inkscape:snap-grids="true"
 fit-margin-top="0"
 fit-margin-left="0"
 fit-margin-right="0"
 fit-margin-bottom="0" />
<metadata
 id="metadata7">
<rdf:RDF>
<cc:Work
 rdf:about="">
<dc:format>image/svg+xml</dc:format>
<dc:type
 rdf:resource="http://purl.org/dc/dcmitype/StillImage" />
<dc:title></dc:title>
</cc:Work>
</rdf:RDF>
</metadata>
<g
 inkscape:label="Layer 1"
 inkscape:groupmode="layer"
 id="layer1"
 transform="translate(-1008.2,-691.74)">
<path
 style="color:#000000;fill:#c0c0c0;stroke-width:2;stroke-dashoffset:20.00012;paint-order:stroke markers fill"
 d="m 1014.7,691.74 c -0.3,0 -0.5,0 -0.8,0.11 v 0 c -3.7,0.98 -3.7,9 -3.7,9 h 9 c 0,0 0,-9.06 -4.5,-9.07 z m 11,0 c -0.3,0 -0.5,0 -0.8,0.11 v 0 c -3.7,0.98 -3.7,9 -3.7,9 h 9 c 0,0 0,-9.06 -4.5,-9.07 z m 11,0 c -0.3,0 -0.5,0 -0.8,0.11 v 0 c -3.7,0.98 -3.7,9 -3.7,9 h 8.9 c 0,0 0,-9.06 -4.4,-9.07 z m -21.5,2.13 c 1,0.29 1.5,1.01 2,1.89 v 3.04 h -2 z m 11,0 c 1,0.29 1.5,1.01 2,1.89 v 3.04 h -2 z m 11,0 c 1,0.29 1.5,1.01 2,1.89 v 3.04 h -2 z m -27,8.99 v 15.62 h 9 v -15.62 z m 11,0 v 15.62 h 9 v -15.62 z m 11,0 v 15.62 h 8.9 v -15.62 z m -17,1.99 h 2 v 11.6 h -2 z m 11,0 h 2 v 11.6 h -2 z m 11,0 h 2 v 11.6 h -2 z m -29,15.62 v 6.01 h 7 v -5.99 z m 9,0 v 6.01 h 4 v -5.99 z m 6,0 v 6.01 h 3 v -5.99 z m 5,0 v 6.01 h 4 v -5.99 z m 6,0 v 6.01 h 3 v -5.99 z m 5,0 v 6.01 h 3.9 v -5.99 z"
 id="path2303-5"
 inkscape:connector-curvature="0" />
</g>
</svg>
