<?xml version="1.0" encoding="UTF-8" standalone="no"?>
<!-- Created with Inkscape (http://www.inkscape.org/) -->

<svg
 xmlns:dc="http://purl.org/dc/elements/1.1/"
 xmlns:cc="http://creativecommons.org/ns#"
 xmlns:rdf="http://www.w3.org/1999/02/22-rdf-syntax-ns#"
 xmlns:svg="http://www.w3.org/2000/svg"
 xmlns="http://www.w3.org/2000/svg"
 xmlns:sodipodi="http://sodipodi.sourceforge.net/DTD/sodipodi-0.dtd"
 xmlns:inkscape="http://www.inkscape.org/namespaces/inkscape"
 width="30.8"
 height="33.86"
 viewBox="0 0 30.8 33.86"
 id="svg2"
 version="1.1"
 inkscape:version="0.92.3 (2405546, 2018-03-11)"
 sodipodi:docname="actioncardbackground.firerateboosticon.svg">
<defs
 id="defs4" />
<sodipodi:namedview
 id="base"
 pagecolor="#202020"
 bordercolor="#666666"
 borderopacity="1.0"
 inkscape:pageopacity="0"
 inkscape:pageshadow="2"
 inkscape:zoom="1.9531"
 inkscape:cx="93.117"
 inkscape:cy="29.756"
 inkscape:document-units="px"
 inkscape:current-layer="layer1"
 showgrid="false"
 units="px"
 inkscape:object-nodes="true"
 inkscape:snap-global="true"
 inkscape:snap-bbox="true"
 inkscape:snap-bbox-midpoints="true"
 inkscape:snap-bbox-edge-midpoints="true"
 inkscape:bbox-nodes="true"
 showguides="false"
 inkscape:guide-bbox="true"
 inkscape:snap-center="true"
 inkscape:object-paths="false"
 inkscape:snap-page="true"
 inkscape:snap-object-midpoints="false"
 inkscape:measure-start="766.99,87.81"
 inkscape:measure-end="767.557,86.2241"
 inkscape:snap-midpoints="false"
 inkscape:snap-nodes="true"
 inkscape:snap-others="false"
 inkscape:bbox-paths="false"
 inkscape:snap-smooth-nodes="false"
 inkscape:snap-intersection-paths="false"
 inkscape:snap-grids="true"
 fit-margin-top="0"
 fit-margin-left="0"
 fit-margin-right="0"
 fit-margin-bottom="0" />
<metadata
 id="metadata7">
<rdf:RDF>
<cc:Work
 rdf:about="">
<dc:format>image/svg+xml</dc:format>
<dc:type
 rdf:resource="http://purl.org/dc/dcmitype/StillImage" />
<dc:title></dc:title>
</cc:Work>
</rdf:RDF>
</metadata>
<g
 inkscape:label="Layer 1"
 inkscape:groupmode="layer"
 id="layer1"
 transform="translate(-860.46,-700.32)">
<path
 style="fill:#c0c0c0;stroke-width:1.99991;stroke-linecap:round;stroke-linejoin:round;stroke-dashoffset:20.00012;paint-order:fill markers stroke"
 d="m 871.16,700.32 -6,3.3 3.7,5.85 0.7,-4.64 z m 13.3,2 a 4,4 0 0 0 -4,4 4,4 0 0 0 4,4 4,4 0 0 0 4,-4 4,4 0 0 0 -4,-4 z m -12.5,1.5 -0.5,1.5 -0.3,1.54 5.5,-0.17 z m 12.5,0.5 a 2,2 0 0 1 2,2 2,2 0 0 1 -2,2 2,2 0 0 1 -2,-2 2,2 0 0 1 2,-2 z m -5.8,5.64 2.3,9.23 h 8 l 2.3,-9.19 c 0,0 -2.5,5.08 -6.3,4.94 -3.8,0 -6.3,-4.99 -6.3,-4.99 z m -2.4,0.96 -9.7,2.44 0.7,2.08 9.4,-2.7 z m -12,2.02 -3.8,1.04 1.2,4.01 3.7,-1.16 z m 11.2,4.02 -7.2,7.02 1.5,1.45 6.9,-7.05 z m 13.3,4.11 -7.6,0.12 c 0.2,2.25 0.5,10.22 3.8,10.22 3.4,-0.1 3.7,-7.97 3.8,-10.34 z m -11,1.61 -2.8,4.78 1.5,0.51 1.5,0.27 z m -11.7,2.06 -2.8,2.82 3,2.85 2.7,-2.84 z m 5.4,3.46 3.3,5.98 5.8,-3.62 -4.6,-0.68 z"
 id="path3031"
 inkscape:connector-curvature="0" />
</g>
</svg>
