<?xml version="1.0" encoding="UTF-8" standalone="no"?>
<!-- Created with Inkscape (http://www.inkscape.org/) -->

<svg
 xmlns:dc="http://purl.org/dc/elements/1.1/"
 xmlns:cc="http://creativecommons.org/ns#"
 xmlns:rdf="http://www.w3.org/1999/02/22-rdf-syntax-ns#"
 xmlns:svg="http://www.w3.org/2000/svg"
 xmlns="http://www.w3.org/2000/svg"
 xmlns:sodipodi="http://sodipodi.sourceforge.net/DTD/sodipodi-0.dtd"
 xmlns:inkscape="http://www.inkscape.org/namespaces/inkscape"
 width="33.102"
 height="33.178"
 viewBox="0 0 33.102 33.178"
 id="svg2"
 version="1.1"
 inkscape:version="0.92.3 (2405546, 2018-03-11)"
 sodipodi:docname="actioncardbackground.weaponshotgunicon.svg">
<defs
 id="defs4" />
<sodipodi:namedview
 id="base"
 pagecolor="#202020"
 bordercolor="#666666"
 borderopacity="1.0"
 inkscape:pageopacity="0"
 inkscape:pageshadow="2"
 inkscape:zoom="1.25"
 inkscape:cx="-23.402"
 inkscape:cy="79.829"
 inkscape:document-units="px"
 inkscape:current-layer="layer1"
 showgrid="false"
 units="px"
 inkscape:object-nodes="true"
 inkscape:snap-global="true"
 inkscape:snap-bbox="true"
 inkscape:snap-bbox-midpoints="true"
 inkscape:snap-bbox-edge-midpoints="true"
 inkscape:bbox-nodes="true"
 showguides="false"
 inkscape:guide-bbox="true"
 inkscape:snap-center="true"
 inkscape:object-paths="false"
 inkscape:snap-page="true"
 inkscape:snap-object-midpoints="false"
 inkscape:measure-start="766.99,87.81"
 inkscape:measure-end="767.557,86.2241"
 inkscape:snap-midpoints="false"
 inkscape:snap-nodes="true"
 inkscape:snap-others="false"
 inkscape:bbox-paths="false"
 inkscape:snap-smooth-nodes="false"
 inkscape:snap-intersection-paths="false"
 inkscape:snap-grids="true"
 fit-margin-top="0"
 fit-margin-left="0"
 fit-margin-right="0"
 fit-margin-bottom="0" />
<metadata
 id="metadata7">
<rdf:RDF>
<cc:Work
 rdf:about="">
<dc:format>image/svg+xml</dc:format>
<dc:type
 rdf:resource="http://purl.org/dc/dcmitype/StillImage" />
<dc:title></dc:title>
</cc:Work>
</rdf:RDF>
</metadata>
<g
 inkscape:label="Layer 1"
 inkscape:groupmode="layer"
 id="layer1"
 transform="translate(-951.97,-891.49)">
<path
 style="fill:#c0c0c0;stroke-width:3.99998;stroke-dashoffset:20.00012;paint-order:stroke markers fill"
 d="m 955.77,895.33 c -4.2,4.23 -5,10.74 -2,15.84 l 5.3,-3 6.1,-3.6 3.4,-5.92 3.1,-5.39 c -5.2,-2.98 -11.7,-2.13 -15.9,2.07 z m 1.7,1.82 c 2.7,-2.66 6.6,-3.69 10.3,-2.7 l -0.9,3.48 c -2.4,-0.63 -4.9,0 -6.7,1.79 -1.7,1.77 -2.3,4.35 -1.7,6.65 l -3.7,1.1 c -1,-3.7 0,-7.61 2.7,-10.32 z m 0.9,0.89 c -2,2.05 -2.9,4.89 -2.6,7.73 l 1.3,-0.2 c -0.3,-2.5 0.5,-4.94 2.2,-6.74 1.8,-1.76 4.3,-2.6 6.8,-2.28 l 0.2,-1.3 c -2.9,-0.35 -5.7,0.64 -7.8,2.67 0,0.1 -0.1,0.1 -0.1,0.14 z m 10.2,5.43 -1.8,3 -2.7,1.6 3.5,3.5 2.7,-1.6 1.8,-3 z m 5.2,5.3 -1.7,3 -2.8,1.6 2.8,2.8 3.5,-0.9 1,-3.8 z m 4.5,4.5 -0.9,3.7 -3.6,0.9 2.6,2.5 4.5,0.1 -0.1,-4.7 z m 4.3,4.3 v 4.7 l -4.5,-0.1 1.9,1.8 2.4,0.7 c 1,-0.9 1.9,-1.8 2.7,-2.8 l -0.7,-2.6 z"
 id="path2245-2-5"
 inkscape:connector-curvature="0"
 sodipodi:nodetypes="cccccccccccccccccccccccccccccccccccccccccccccccccccc" />
</g>
</svg>
