<?xml version="1.0" encoding="UTF-8" standalone="no"?>
<!-- Created with Inkscape (http://www.inkscape.org/) -->

<svg
 xmlns:dc="http://purl.org/dc/elements/1.1/"
 xmlns:cc="http://creativecommons.org/ns#"
 xmlns:rdf="http://www.w3.org/1999/02/22-rdf-syntax-ns#"
 xmlns:svg="http://www.w3.org/2000/svg"
 xmlns="http://www.w3.org/2000/svg"
 xmlns:sodipodi="http://sodipodi.sourceforge.net/DTD/sodipodi-0.dtd"
 xmlns:inkscape="http://www.inkscape.org/namespaces/inkscape"
 width="40"
 height="40.04"
 viewBox="0 0 40 40.04"
 id="svg2"
 version="1.1"
 inkscape:version="0.92.3 (2405546, 2018-03-11)"
 sodipodi:docname="actioncardbackground.abilityrestaurationicon.svg">
<defs
 id="defs4" />
<sodipodi:namedview
 id="base"
 pagecolor="#202020"
 bordercolor="#666666"
 borderopacity="1.0"
 inkscape:pageopacity="0"
 inkscape:pageshadow="2"
 inkscape:zoom="1.5625"
 inkscape:cx="170.04"
 inkscape:cy="45.961"
 inkscape:document-units="px"
 inkscape:current-layer="layer1"
 showgrid="false"
 units="px"
 inkscape:object-nodes="true"
 inkscape:snap-global="true"
 inkscape:snap-bbox="true"
 inkscape:snap-bbox-midpoints="true"
 inkscape:snap-bbox-edge-midpoints="true"
 inkscape:bbox-nodes="true"
 showguides="false"
 inkscape:guide-bbox="true"
 inkscape:snap-center="true"
 inkscape:object-paths="false"
 inkscape:snap-page="true"
 inkscape:snap-object-midpoints="false"
 inkscape:measure-start="766.99,87.81"
 inkscape:measure-end="767.557,86.2241"
 inkscape:snap-midpoints="false"
 inkscape:snap-nodes="true"
 inkscape:snap-others="false"
 inkscape:bbox-paths="false"
 inkscape:snap-smooth-nodes="false"
 inkscape:snap-intersection-paths="false"
 inkscape:snap-grids="true"
 fit-margin-top="0"
 fit-margin-left="0"
 fit-margin-right="0"
 fit-margin-bottom="0" />
<metadata
 id="metadata7">
<rdf:RDF>
<cc:Work
 rdf:about="">
<dc:format>image/svg+xml</dc:format>
<dc:type
 rdf:resource="http://purl.org/dc/dcmitype/StillImage" />
<dc:title></dc:title>
</cc:Work>
</rdf:RDF>
</metadata>
<g
 inkscape:label="Layer 1"
 inkscape:groupmode="layer"
 id="layer1"
 transform="translate(-651.1,-819.22)">
<path
 style="fill:#c0c0c0;stroke-width:2.00001;stroke-dashoffset:20.00012;paint-order:stroke markers fill"
 d="m 666.1,819.22 v 9.99 h 4 v 5.01 h -4 l 0.1,3.94 h -5.1 v -3.93 h -10 v 10.03 h 10 l -0.1,-4 h 5.1 v 4 h 2 v 5 h -2 v 10 h 10 v -10 h -2 v -5 h 2 v -2 h 5 v 2 h 10 v -10.04 h -10 l 0.1,1.99 h -5.1 v -2 h -4 v -5 h 4 v -9.99 z m 2,2.01 h 6 v 6.02 h -6 z m 15,14.98 h 6 v 6.05 h -6 z m -29,0 a 0.99999,0.99998 0 0 1 1,1 0.99999,0.99998 0 0 1 -1,0.95 0.99999,0.99998 0 0 1 -1,-0.95 0.99999,0.99998 0 0 1 1,-1 z m 4,0 a 0.99999,0.99998 0 0 1 1,1 0.99999,0.99998 0 0 1 -1,0.95 0.99999,0.99998 0 0 1 -1,-0.95 0.99999,0.99998 0 0 1 1,-1 z m 18,1.95 h 5.1 l -0.1,2.1 H 676 Z m -22,2 a 0.99999,0.99998 0 0 1 1,1 0.99999,0.99998 0 0 1 -1,1 0.99999,0.99998 0 0 1 -1,-1 0.99999,0.99998 0 0 1 1,-1 z m 4,0 a 0.99999,0.99998 0 0 1 1,1 0.99999,0.99998 0 0 1 -1,1 0.99999,0.99998 0 0 1 -1,-1 0.99999,0.99998 0 0 1 1,-1 z m 12,4 h 2 v 5 h -2 z m -1,7 a 0.99999,0.99998 0 0 1 1,1 0.99999,0.99998 0 0 1 -1,1 0.99999,0.99998 0 0 1 -1,-1 0.99999,0.99998 0 0 1 1,-1 z m 4,0 a 0.99999,0.99998 0 0 1 1,1 0.99999,0.99998 0 0 1 -1,1 0.99999,0.99998 0 0 1 -1,-1 0.99999,0.99998 0 0 1 1,-1 z m -4,4 a 0.99999,0.99998 0 0 1 1,1 0.99999,0.99998 0 0 1 -1,1 0.99999,0.99998 0 0 1 -1,-1 0.99999,0.99998 0 0 1 1,-1 z m 4,0 a 0.99999,0.99998 0 0 1 1,1 0.99999,0.99998 0 0 1 -1,1 0.99999,0.99998 0 0 1 -1,-1 0.99999,0.99998 0 0 1 1,-1 z"
 id="rect3239"
 inkscape:connector-curvature="0" />
</g>
</svg>
