<?xml version="1.0" encoding="UTF-8" standalone="no"?>
<!-- Created with Inkscape (http://www.inkscape.org/) -->

<svg
 xmlns:dc="http://purl.org/dc/elements/1.1/"
 xmlns:cc="http://creativecommons.org/ns#"
 xmlns:rdf="http://www.w3.org/1999/02/22-rdf-syntax-ns#"
 xmlns:svg="http://www.w3.org/2000/svg"
 xmlns="http://www.w3.org/2000/svg"
 xmlns:sodipodi="http://sodipodi.sourceforge.net/DTD/sodipodi-0.dtd"
 xmlns:inkscape="http://www.inkscape.org/namespaces/inkscape"
 width="40"
 height="40.1"
 viewBox="0 0 40 40.1"
 id="svg2"
 version="1.1"
 inkscape:version="0.92.3 (2405546, 2018-03-11)"
 sodipodi:docname="actioncardbackground.gearicon.svg">
<defs
 id="defs4" />
<sodipodi:namedview
 id="base"
 pagecolor="#202020"
 bordercolor="#666666"
 borderopacity="1.0"
 inkscape:pageopacity="0"
 inkscape:pageshadow="2"
 inkscape:zoom="1"
 inkscape:cx="-134"
 inkscape:cy="-3.1671"
 inkscape:document-units="px"
 inkscape:current-layer="layer1"
 showgrid="false"
 units="px"
 inkscape:object-nodes="true"
 inkscape:snap-global="true"
 inkscape:snap-bbox="true"
 inkscape:snap-bbox-midpoints="true"
 inkscape:snap-bbox-edge-midpoints="true"
 inkscape:bbox-nodes="true"
 showguides="false"
 inkscape:guide-bbox="true"
 inkscape:snap-center="true"
 inkscape:object-paths="false"
 inkscape:snap-page="true"
 inkscape:snap-object-midpoints="false"
 inkscape:measure-start="766.99,87.81"
 inkscape:measure-end="767.557,86.2241"
 inkscape:snap-midpoints="false"
 inkscape:snap-nodes="false"
 inkscape:snap-others="false"
 inkscape:bbox-paths="false"
 inkscape:snap-smooth-nodes="false"
 inkscape:snap-intersection-paths="false"
 inkscape:snap-grids="true"
 fit-margin-top="0"
 fit-margin-left="0"
 fit-margin-right="0"
 fit-margin-bottom="0" />
<metadata
 id="metadata7">
<rdf:RDF>
<cc:Work
 rdf:about="">
<dc:format>image/svg+xml</dc:format>
<dc:type
 rdf:resource="http://purl.org/dc/dcmitype/StillImage" />
<dc:title></dc:title>
</cc:Work>
</rdf:RDF>
</metadata>
<g
 inkscape:label="Layer 1"
 inkscape:groupmode="layer"
 id="layer1"
 transform="translate(-884.2,-925.54)">
<path
 style="fill:#c0c0c0;stroke-width:1.33333;stroke-linecap:round;stroke-dashoffset:20.00012;paint-order:stroke markers fill"
 d="m 905.2,925.54 -2.1,0.1 v 10.1 a 10,10 0 0 1 1.1,-0.1 10,10 0 0 1 1,0 z m -14.4,5.2 -1.4,1.4 7.1,7.2 a 10,10 0 0 1 1.4,-1.5 z m 26.8,0 -7.1,7.1 a 10,10 0 0 1 1.4,1.4 l 7.3,-7.1 z m -3.5,13.8 a 10,10 0 0 1 0.1,1.1 10,10 0 0 1 -0.1,0.9 l 10,0.1 0.1,-2.1 z m -29.9,0.1 v 1.9 h 10.1 a 10,10 0 0 1 0,-0.9 10,10 0 0 1 0,-1 z m 12.2,7.3 -7.1,7.1 1.5,1.4 7.1,-7.1 a 10,10 0 0 1 -1.5,-1.4 z m 15.6,0 a 10,10 0 0 1 -1.5,1.4 l 7.1,7.1 1.5,-1.4 z m -8.9,3.6 v 10.1 l 2.1,-0.1 v -10 a 10,10 0 0 1 -0.9,0.1 10,10 0 0 1 -1.1,-0.1 z"
 id="path2372-7-2"
 inkscape:connector-curvature="0" />
</g>
</svg>
