<?xml version="1.0" encoding="UTF-8" standalone="no"?>
<!-- Created with Inkscape (http://www.inkscape.org/) -->

<svg
 xmlns:dc="http://purl.org/dc/elements/1.1/"
 xmlns:cc="http://creativecommons.org/ns#"
 xmlns:rdf="http://www.w3.org/1999/02/22-rdf-syntax-ns#"
 xmlns:svg="http://www.w3.org/2000/svg"
 xmlns="http://www.w3.org/2000/svg"
 xmlns:sodipodi="http://sodipodi.sourceforge.net/DTD/sodipodi-0.dtd"
 xmlns:inkscape="http://www.inkscape.org/namespaces/inkscape"
 width="35.779"
 height="27.009"
 viewBox="0 0 35.779 27.009"
 id="svg2"
 version="1.1"
 inkscape:version="0.92.3 (2405546, 2018-03-11)"
 sodipodi:docname="actioncardbackground.auxregenboosticon.svg">
<defs
 id="defs4" />
<sodipodi:namedview
 id="base"
 pagecolor="#202020"
 bordercolor="#666666"
 borderopacity="1.0"
 inkscape:pageopacity="0"
 inkscape:pageshadow="2"
 inkscape:zoom="1.9531"
 inkscape:cx="15.33"
 inkscape:cy="6.3269"
 inkscape:document-units="px"
 inkscape:current-layer="layer1"
 showgrid="false"
 units="px"
 inkscape:object-nodes="true"
 inkscape:snap-global="true"
 inkscape:snap-bbox="true"
 inkscape:snap-bbox-midpoints="true"
 inkscape:snap-bbox-edge-midpoints="true"
 inkscape:bbox-nodes="true"
 showguides="false"
 inkscape:guide-bbox="true"
 inkscape:snap-center="true"
 inkscape:object-paths="false"
 inkscape:snap-page="true"
 inkscape:snap-object-midpoints="false"
 inkscape:measure-start="766.99,87.81"
 inkscape:measure-end="767.557,86.2241"
 inkscape:snap-midpoints="false"
 inkscape:snap-nodes="true"
 inkscape:snap-others="false"
 inkscape:bbox-paths="false"
 inkscape:snap-smooth-nodes="false"
 inkscape:snap-intersection-paths="false"
 inkscape:snap-grids="true"
 fit-margin-top="0"
 fit-margin-left="0"
 fit-margin-right="0"
 fit-margin-bottom="0" />
<metadata
 id="metadata7">
<rdf:RDF>
<cc:Work
 rdf:about="">
<dc:format>image/svg+xml</dc:format>
<dc:type
 rdf:resource="http://purl.org/dc/dcmitype/StillImage" />
<dc:title></dc:title>
</cc:Work>
</rdf:RDF>
</metadata>
<g
 inkscape:label="Layer 1"
 inkscape:groupmode="layer"
 id="layer1"
 transform="translate(-1152.7,-706.27)">
<path
 style="color:#000000;fill:#c0c0c0;stroke-width:2;stroke-dashoffset:20.00012;paint-order:stroke markers fill"
 d="m 1161.7,706.27 c -1.3,0.1 -2.4,0.5 -3.2,1.27 -3.1,3.22 -0.2,11.27 6.6,17.99 0.9,0.93 1.9,1.79 2.8,2.59 l 0.2,-1.88 c -0.7,-0.63 -1.4,-1.29 -2.1,-1.98 -5.7,-5.76 -8.3,-12.52 -5.7,-15.11 0.7,-0.63 1.5,-0.97 2.7,-1 1.2,0 2.7,0.31 4.4,1.02 l 0.2,-1.32 v -0.17 c -1.9,-0.87 -3.7,-1.35 -5.2,-1.41 -0.2,0 -0.5,0 -0.7,0 z m 7.9,2.07 -3.1,12.77 4.3,0.96 -1.2,10.09 6.4,-12.35 -5.7,-1.02 5.7,-10.01 z m 8.1,1.38 v 0.1 l -0.8,1.61 c 0.1,0.13 0.3,0.24 0.4,0.36 1.3,0 2.4,0.11 3.5,0.31 3.3,0.56 5.1,1.9 5.6,3.49 0.3,1.44 -0.4,3.24 -2.3,5.16 0.4,0.65 0.7,1.32 1,1.97 2.4,-2.3 4,-5.06 3.2,-7.65 -0.8,-2.75 -3.4,-4.37 -7.1,-5.02 -1,-0.19 -2.1,-0.28 -3.5,-0.31 z m -1.9,3.59 -0.7,1.41 c 0.1,0.1 0.2,0.2 0.2,0.31 5.8,5.78 8.4,12.4 5.8,14.94 -1.5,1.45 -4.4,1.32 -7.8,-0.36 l -0.8,1.54 c 4.6,2.49 8.6,2.82 10.6,0.86 3.1,-3.21 0.1,-11.25 -6.6,-17.97 -0.2,-0.25 -0.5,-0.5 -0.7,-0.73 z m -19.2,3.41 c -2.9,2.35 -4.4,5.08 -3.7,7.8 0.8,2.69 3.6,4.4 7.2,5.04 1.9,0.36 4.3,0.42 6.6,0.22 -0.8,-0.62 -1.5,-1.28 -2.2,-1.96 -1.5,0 -2.9,-0.11 -4,-0.3 -3.2,-0.62 -5,-1.94 -5.4,-3.54 -0.6,-1.47 0.3,-3.37 2.3,-5.3 -0.3,-0.66 -0.6,-1.31 -0.8,-1.96 z"
 id="ellipse2253"
 inkscape:connector-curvature="0"
 sodipodi:nodetypes="ccccccccccccccccccccccccccccccccccccccccccccccccccc" />
</g>
</svg>
