<?xml version="1.0" encoding="UTF-8" standalone="no"?>
<!-- Created with Inkscape (http://www.inkscape.org/) -->

<svg
 xmlns:dc="http://purl.org/dc/elements/1.1/"
 xmlns:cc="http://creativecommons.org/ns#"
 xmlns:rdf="http://www.w3.org/1999/02/22-rdf-syntax-ns#"
 xmlns:svg="http://www.w3.org/2000/svg"
 xmlns="http://www.w3.org/2000/svg"
 xmlns:sodipodi="http://sodipodi.sourceforge.net/DTD/sodipodi-0.dtd"
 xmlns:inkscape="http://www.inkscape.org/namespaces/inkscape"
 width="42"
 height="42"
 viewBox="0 0 42 42"
 id="svg2"
 version="1.1"
 inkscape:version="0.92.3 (2405546, 2018-03-11)"
 sodipodi:docname="cube.highspeed.svg">
<defs
 id="defs4" />
<sodipodi:namedview
 id="base"
 pagecolor="#000000"
 bordercolor="#666666"
 borderopacity="1.0"
 inkscape:pageopacity="0"
 inkscape:pageshadow="2"
 inkscape:zoom="1.9531"
 inkscape:cx="22.135"
 inkscape:cy="61.362"
 inkscape:document-units="px"
 inkscape:current-layer="layer1"
 showgrid="false"
 units="px"
 inkscape:object-nodes="false"
 inkscape:snap-global="true"
 inkscape:snap-bbox="true"
 inkscape:snap-bbox-midpoints="true"
 inkscape:snap-bbox-edge-midpoints="false"
 inkscape:bbox-nodes="false"
 showguides="true"
 inkscape:guide-bbox="true"
 inkscape:snap-center="true"
 inkscape:object-paths="false"
 inkscape:snap-page="true"
 inkscape:snap-object-midpoints="false"
 inkscape:measure-start="16.7696,-51.1562"
 inkscape:measure-end="24.1716,-68.1141"
 inkscape:snap-midpoints="false"
 inkscape:snap-nodes="false"
 inkscape:snap-others="false"
 inkscape:bbox-paths="false"
 inkscape:snap-smooth-nodes="false"
 inkscape:snap-intersection-paths="false"
 fit-margin-top="0"
 fit-margin-left="0"
 fit-margin-right="0"
 fit-margin-bottom="0" />
<metadata
 id="metadata7">
<rdf:RDF>
<cc:Work
 rdf:about="">
<dc:format>image/svg+xml</dc:format>
<dc:type
 rdf:resource="http://purl.org/dc/dcmitype/StillImage" />
<dc:title></dc:title>
</cc:Work>
</rdf:RDF>
</metadata>
<g
 inkscape:label="Layer 1"
 inkscape:groupmode="layer"
 id="layer1"
 transform="translate(-1195.7,-208.84)">
<rect
 y="208.84"
 x="1195.7"
 height="42"
 width="42"
 id="rect3711"
 style="fill:#000000;stroke-width:1.99994;stroke-linecap:round;stroke-linejoin:round;paint-order:fill markers stroke" />
<rect
 style="fill:#2f4f4f;stroke-width:1.99998;stroke-linecap:round;stroke-linejoin:round;paint-order:fill markers stroke"
 id="rect3713"
 width="38"
 height="38"
 x="1197.7"
 y="210.84" />
<path
 style="fill:#000000;stroke-width:1.99999;stroke-linecap:round;stroke-linejoin:round;paint-order:fill markers stroke"
 d="m 1196.5,223.84 v 12 h 13.5 a 8.9998,8.9998 0 0 1 -2.3,-6 8.9998,8.9998 0 0 1 2.3,-6 z m 26.9,0 a 8.9998,8.9998 0 0 1 2.3,6 8.9998,8.9998 0 0 1 -2.3,6 h 13.5 v -12 z"
 id="rect3788"
 inkscape:connector-curvature="0" />
<path
 style="fill:#adff2f;stroke-width:2;stroke-linecap:round;stroke-linejoin:round;paint-order:fill markers stroke"
 d="m 1197.7,225.84 v 8 h 8.8 a 11,11 0 0 1 -0.8,-4 11,11 0 0 1 0.8,-4 z m 29.2,0 a 11,11 0 0 1 0.8,4 11,11 0 0 1 -0.8,4 h 8.8 v -8 z"
 id="rect3786"
 inkscape:connector-curvature="0" />
<path
 style="fill:#3cb371;stroke-width:1.99997;stroke-linecap:round;stroke-linejoin:round;paint-order:fill markers stroke"
 d="m 1199.7,227.84 v 4 h 4.3 a 13,13 0 0 1 -0.2,-2 13,13 0 0 1 0.2,-2 z m 29.9,0 a 13,13 0 0 1 0.2,2 13,13 0 0 1 -0.2,2 h 4.1 v -4 z"
 id="rect3784"
 inkscape:connector-curvature="0" />
<circle
 r="6.9999"
 style="fill:#000000;stroke-width:1.99983;stroke-linecap:round;stroke-linejoin:round;paint-order:fill markers stroke"
 id="circle3715"
 cx="1216.7"
 cy="229.84" />
<circle
 r="5"
 cy="229.84"
 cx="1216.7"
 id="circle3717"
 style="fill:#ff8c00;stroke-width:1.99994;stroke-linecap:round;stroke-linejoin:round;paint-order:fill markers stroke" />
</g>
</svg>
