<?xml version="1.0" encoding="UTF-8" standalone="no"?>
<!-- Created with Inkscape (http://www.inkscape.org/) -->

<svg xmlns:dc="http://purl.org/dc/elements/1.1/" xmlns:cc="http://creativecommons.org/ns#" xmlns:rdf="http://www.w3.org/1999/02/22-rdf-syntax-ns#" xmlns:svg="http://www.w3.org/2000/svg" xmlns="http://www.w3.org/2000/svg" xmlns:sodipodi="http://sodipodi.sourceforge.net/DTD/sodipodi-0.dtd" xmlns:inkscape="http://www.inkscape.org/namespaces/inkscape" width="294" height="168" viewBox="0 0 77.787498 44.450001" version="1.1" id="svg8" inkscape:version="0.92.4 (5da689c313, 2019-01-14)" sodipodi:docname="icons.svg">
<defs id="defs2" />
<sodipodi:namedview id="base" pagecolor="#000000" bordercolor="#666666" borderopacity="1.0" inkscape:pageopacity="0" inkscape:pageshadow="2" inkscape:zoom="1.953125" inkscape:cx="70.252638" inkscape:cy="133.26262" inkscape:document-units="px" inkscape:current-layer="layer1" showgrid="false" units="px" inkscape:snap-nodes="false" inkscape:snap-bbox="true" inkscape:bbox-nodes="true" inkscape:snap-bbox-midpoints="false" fit-margin-top="0" fit-margin-left="0" fit-margin-right="0" fit-margin-bottom="0" />
<metadata id="metadata5">
<rdf:RDF>
<cc:Work rdf:about="">
<dc:format>image/svg+xml</dc:format>
<dc:type rdf:resource="http://purl.org/dc/dcmitype/StillImage" />
<dc:title></dc:title>
</cc:Work>
</rdf:RDF>
</metadata>
<g inkscape:label="Layer 1" inkscape:groupmode="layer" id="layer1" transform="translate(0,-285.88744)">
<g transform="matrix(0.26458333,0,0,0.26458333,-108.33629,73.269629)" id="layer1-1" inkscape:label="Layer 1">
<path inkscape:connector-curvature="0" id="rect2669" d="m 433.96,847.51 -3,5.2 6.2,3.55 3,-5.2 z m 7.9,4.55 -3,5.2 3.5,2 3,-5.2 z m -10.1,3.41 -7.8,13.51 7.8,4.55 7.8,-13.51 z m 3.4,4.28 1.7,1 -5.8,10.05 -1.7,-1 z m -13.7,-6.97 -2.4,9.97 -5.4,2.35 3.5,16.38 1.1,-13.43 4.7,-1.69 z m 25.8,14.85 -12.7,5.43 1,4.99 -11.1,7.63 15.9,-5.18 -0.7,-5.9 z m -24.3,3.08 c 0,0 -4.6,7.88 -0.6,10.18 3.9,2.25 8.4,-5.63 8.4,-5.63 z m 3.4,4.27 1.7,1 -1.5,2.65 c -0.9,0.51 -1.8,0.81 -2.7,0.63 z" style="fill:#c0c0c0;stroke-width:1.47248995;stroke-linecap:round;stroke-linejoin:round;paint-order:fill markers stroke" />
</g>
<g transform="matrix(0.26458333,0,0,0.26458333,-215.0692,112.78383)" id="layer1-0" inkscape:label="Layer 1">
<path inkscape:connector-curvature="0" id="path3031" d="m 871.16,700.32 -6,3.3 3.7,5.85 0.7,-4.64 z m 13.3,2 a 4,4 0 0 0 -4,4 4,4 0 0 0 4,4 4,4 0 0 0 4,-4 4,4 0 0 0 -4,-4 z m -12.5,1.5 -0.5,1.5 -0.3,1.54 5.5,-0.17 z m 12.5,0.5 a 2,2 0 0 1 2,2 2,2 0 0 1 -2,2 2,2 0 0 1 -2,-2 2,2 0 0 1 2,-2 z m -5.8,5.64 2.3,9.23 h 8 l 2.3,-9.19 c 0,0 -2.5,5.08 -6.3,4.94 -3.8,0 -6.3,-4.99 -6.3,-4.99 z m -2.4,0.96 -9.7,2.44 0.7,2.08 9.4,-2.7 z m -12,2.02 -3.8,1.04 1.2,4.01 3.7,-1.16 z m 11.2,4.02 -7.2,7.02 1.5,1.45 6.9,-7.05 z m 13.3,4.11 -7.6,0.12 c 0.2,2.25 0.5,10.22 3.8,10.22 3.4,-0.1 3.7,-7.97 3.8,-10.34 z m -11,1.61 -2.8,4.78 1.5,0.51 1.5,0.27 z m -11.7,2.06 -2.8,2.82 3,2.85 2.7,-2.84 z m 5.4,3.46 3.3,5.98 5.8,-3.62 -4.6,-0.68 z" style="fill:#c0c0c0;stroke-width:1.99991;stroke-linecap:round;stroke-linejoin:round;stroke-dashoffset:20.00012016;paint-order:fill markers stroke" />
</g>
<g transform="matrix(0.26458333,0,0,0.26458333,-189.23,41.256369)" id="layer1-17" inkscape:label="Layer 1">
<path inkscape:connector-curvature="0" id="path2372-7-2" d="m 905.2,925.54 -2.1,0.1 v 10.1 a 10,10 0 0 1 1.1,-0.1 10,10 0 0 1 1,0 z m -14.4,5.2 -1.4,1.4 7.1,7.2 a 10,10 0 0 1 1.4,-1.5 z m 26.8,0 -7.1,7.1 a 10,10 0 0 1 1.4,1.4 l 7.3,-7.1 z m -3.5,13.8 a 10,10 0 0 1 0.1,1.1 10,10 0 0 1 -0.1,0.9 l 10,0.1 0.1,-2.1 z m -29.9,0.1 v 1.9 h 10.1 a 10,10 0 0 1 0,-0.9 10,10 0 0 1 0,-1 z m 12.2,7.3 -7.1,7.1 1.5,1.4 7.1,-7.1 a 10,10 0 0 1 -1.5,-1.4 z m 15.6,0 a 10,10 0 0 1 -1.5,1.4 l 7.1,7.1 1.5,-1.4 z m -8.9,3.6 v 10.1 l 2.1,-0.1 v -10 a 10,10 0 0 1 -0.9,0.1 10,10 0 0 1 -1.1,-0.1 z" style="fill:#c0c0c0;stroke-width:1.33333004;stroke-linecap:round;stroke-dashoffset:20.00012016;paint-order:stroke markers fill" />
</g>
<g transform="matrix(0.26458333,0,0,0.26458333,-50.723273,73.753816)" id="layer1-18" inkscape:label="Layer 1">
<path inkscape:connector-curvature="0" id="path2853" d="m 388.16,846.37 c -9.2,0.71 -16.4,3.16 -23,6.17 5,9.84 7.4,20.17 8.2,30.62 7.7,-1.13 15.4,-1.85 22.9,-6.14 0,-9.94 -2.4,-21.51 -8.1,-30.65 z m -1.2,1.97 c 4.9,8.13 7.1,18.6 7.2,27.37 -6.3,3.55 -12.7,4.12 -19.1,5.12 -0.8,-9.2 -3,-18.46 -7.3,-27.34 5.6,-2.22 11.6,-4.34 19.2,-5.14 z m -1.1,2.17 v 0 c -6.1,0.7 -10.9,2.49 -15.5,4.13 3.7,7.81 5.6,15.89 6.4,23.85 5.1,-0.95 10.3,-1.2 15.5,-4.11 -0.3,-7.69 -2.3,-16.78 -6.3,-23.88 z m -1.9,2.31 a 1.5,1.5 0 0 1 1.5,1.5 1.5,1.5 0 0 1 -1.5,1.5 1.5,1.5 0 0 1 -1.5,-1.5 1.5,1.5 0 0 1 1.5,-1.5 z m -8.8,2.38 a 1.5,1.5 0 0 1 1.5,1.5 1.5,1.5 0 0 1 -1.5,1.5 1.5,1.5 0 0 1 -1.5,-1.5 1.5,1.5 0 0 1 1.5,-1.5 z m 13.3,15.64 a 1.5,1.5 0 0 1 1.5,1.5 1.5,1.5 0 0 1 -1.5,1.5 1.5,1.5 0 0 1 -1.5,-1.5 1.5,1.5 0 0 1 1.5,-1.5 z m -8.6,2.18 a 1.5,1.5 0 0 1 1.5,1.5 1.5,1.5 0 0 1 -1.5,1.5 1.5,1.5 0 0 1 -1.5,-1.5 1.5,1.5 0 0 1 1.5,-1.5 z" style="fill:#c0c0c0;stroke-width:4.00003004;stroke-dashoffset:20.00012016;paint-order:stroke markers fill" />
</g>
<g transform="matrix(0.26458333,0,0,0.26458333,-175.48489,41.282839)" id="layer1-5" inkscape:label="Layer 1">
<path inkscape:connector-curvature="0" id="rect2402-3-8" d="m 694,924.74 1.4,1.4 -19.4,19.5 19.2,19.2 -1.4,1.4 -19.2,-19.2 v 0 l -1.5,-1.4 v 0 l 1.5,-1.4 z" style="fill:#c0c0c0;stroke-width:1.33333004;stroke-linecap:round;stroke-dashoffset:20.00012016;paint-order:stroke markers fill" />
</g>
<g transform="matrix(0.26458333,0,0,0.26458333,-95.051559,41.256369)" id="layer1-9" inkscape:label="Layer 1">
<path inkscape:connector-curvature="0" style="fill:#c0c0c0;stroke-width:1.33333004;stroke-linecap:round;stroke-dashoffset:20.00012016;paint-order:stroke markers fill" d="m 463.2,925.54 v 19 h -19 v 2 h 19 v 19.1 h 2 v -19.1 h 19.1 v -2 h -19.1 v -19 z" id="path2289-7-3" />
</g>
<g transform="matrix(0.26458333,0,0,0.26458333,-164.37239,41.282839)" id="layer1-6" inkscape:label="Layer 1">
<path inkscape:connector-curvature="0" id="rect2402-3-8-7" d="m 674.5,924.74 -1.4,1.4 19.4,19.5 -19.2,19.2 1.4,1.4 19.2,-19.2 v 0 l 1.5,-1.4 v 0 l -1.5,-1.4 z" style="fill:#c0c0c0;stroke-width:1.33333004;stroke-linecap:round;stroke-dashoffset:20.00012016;paint-order:stroke markers fill" />
</g>
<g transform="matrix(0.26458333,0,0,0.26458333,-239.01664,99.234495)" id="layer1-14" inkscape:label="Layer 1">
<path sodipodi:nodetypes="cccccccccccccccccccccccccccccccccccccccccccccccccccccccccccccccccccccccccccccccccccccccc" inkscape:connector-curvature="0" id="path2245-2-0" d="m 949.47,840.11 0.5,3.36 7.2,-7.28 -3.3,-0.45 z m 0.8,6.02 5.2,5.19 9.5,-9.55 -5.1,-5.13 z m 8.3,-7.68 v 0 c 0.4,-0.51 1.1,-0.56 1.6,-0.1 0.5,0.42 0.5,1.15 0,1.57 -0.4,0.51 -1.1,0.56 -1.6,0.1 -0.4,-0.42 -0.4,-1.13 0,-1.55 z m -3.2,3.19 c 0.4,-0.48 1.2,-0.48 1.6,0 0.5,0.49 0.4,1.3 -0.2,1.66 -0.4,0.41 -1.1,0.41 -1.5,0 -0.4,-0.42 -0.4,-1.12 0,-1.54 v 0 c 0,-0.1 0.1,-0.11 0.1,-0.16 z m -3.4,3.41 0.1,-0.1 c 0.4,-0.48 1.2,-0.48 1.6,0 0.4,0.44 0.3,1.1 -0.1,1.49 -0.4,0.54 -1.1,0.63 -1.6,0.2 -0.4,-0.42 -0.4,-1.13 0,-1.55 h -0.1 l 0.1,-0.1 z m 3.1,0 c 0.1,0 0.1,-0.1 0.2,-0.1 v 0 c 0.4,-0.41 1.1,-0.41 1.5,0 0.4,0.42 0.4,1.12 0,1.54 -0.4,0.41 -1.1,0.41 -1.5,0 -0.4,-0.34 -0.5,-0.92 -0.2,-1.36 z m 3.4,-3.36 c 0.4,-0.48 1.2,-0.48 1.6,0 0.4,0.44 0.3,1.1 -0.1,1.49 -0.4,0.41 -1.1,0.41 -1.5,0 -0.4,-0.37 -0.4,-0.96 -0.1,-1.38 0,-0.1 0.1,-0.1 0.1,-0.14 z m -0.2,3.16 v 0 c 0.4,-0.48 1.2,-0.48 1.6,0 0.4,0.44 0.3,1.1 -0.1,1.49 -0.4,0.41 -1.1,0.41 -1.5,0 -0.4,-0.42 -0.4,-1.13 0,-1.55 z m 3.3,-3.18 c 0.1,0 0.1,-0.1 0.2,-0.14 0.4,-0.32 1,-0.28 1.4,0.1 0.4,0.42 0.4,1.12 0,1.54 -0.4,0.48 -1.2,0.48 -1.6,0 -0.4,-0.41 -0.4,-1.02 0,-1.43 z m -6.3,6.37 c 0.4,-0.35 1,-0.35 1.4,0 0.4,0.42 0.4,1.12 0,1.54 -0.4,0.51 -1.1,0.56 -1.6,0.1 -0.5,-0.45 -0.4,-1.21 0.1,-1.6 z m 10.1,-3.55 -7.1,7.26 3.4,0.42 4.3,-4.31 z m -2.3,9.31 12.1,12.1 1.7,-1.7 -12.1,-12.1 z m 12.1,14.77 0.6,0.61 c 3.3,-2.09 5.9,-5.1 7.5,-8.65 z m -9.3,-17.42 12.1,12.11 1.7,-1.7 -12.1,-12.1 z" style="fill:#c0c0c0;stroke-width:3.99997997;stroke-dashoffset:20.00012016;paint-order:stroke markers fill" />
</g>
<g transform="matrix(0.26458333,0,0,0.26458333,-250.16883,111.13676)" id="layer1-58" inkscape:label="Layer 1">
<path sodipodi:nodetypes="ccccccccccccccccccccccccccccc" inkscape:connector-curvature="0" id="circle3186" d="m 955.37,791.22 -4.6,4.65 2.5,2.61 4.7,-4.67 z m 3,5.14 -2.4,2.41 2.5,2.61 2.9,-1.92 z m 0.6,7.82 3.9,3.91 7.3,-2.06 -5.5,-5.49 z m 5.6,5.6 4.3,4.3 7.3,-2.06 -4.3,-4.29 z m 6.1,5.99 4.3,4.3 7.2,-2.04 -4.3,-4.29 z m 6,6.08 1.9,1.88 c 1.4,-1 2.6,-2.18 3.7,-3.5 z" style="fill:#c0c0c0;stroke-width:3.99997997;stroke-dashoffset:20.00012016;paint-order:stroke markers fill" />
</g>
<g transform="matrix(0.26458333,0,0,0.26458333,-228.47276,84.518142)" id="layer1-53" inkscape:label="Layer 1">
<path sodipodi:nodetypes="cccccccccccccccccccccccccccccccccccccccccccccccccccc" inkscape:connector-curvature="0" id="path2245-2-5" d="m 955.77,895.33 c -4.2,4.23 -5,10.74 -2,15.84 l 5.3,-3 6.1,-3.6 3.4,-5.92 3.1,-5.39 c -5.2,-2.98 -11.7,-2.13 -15.9,2.07 z m 1.7,1.82 c 2.7,-2.66 6.6,-3.69 10.3,-2.7 l -0.9,3.48 c -2.4,-0.63 -4.9,0 -6.7,1.79 -1.7,1.77 -2.3,4.35 -1.7,6.65 l -3.7,1.1 c -1,-3.7 0,-7.61 2.7,-10.32 z m 0.9,0.89 c -2,2.05 -2.9,4.89 -2.6,7.73 l 1.3,-0.2 c -0.3,-2.5 0.5,-4.94 2.2,-6.74 1.8,-1.76 4.3,-2.6 6.8,-2.28 l 0.2,-1.3 c -2.9,-0.35 -5.7,0.64 -7.8,2.67 0,0.1 -0.1,0.1 -0.1,0.14 z m 10.2,5.43 -1.8,3 -2.7,1.6 3.5,3.5 2.7,-1.6 1.8,-3 z m 5.2,5.3 -1.7,3 -2.8,1.6 2.8,2.8 3.5,-0.9 1,-3.8 z m 4.5,4.5 -0.9,3.7 -3.6,0.9 2.6,2.5 4.5,0.1 -0.1,-4.7 z m 4.3,4.3 v 4.7 l -4.5,-0.1 1.9,1.8 2.4,0.7 c 1,-0.9 1.9,-1.8 2.7,-2.8 l -0.7,-2.6 z" style="fill:#c0c0c0;stroke-width:3.99997997;stroke-dashoffset:20.00012016;paint-order:stroke markers fill" />
</g>
<g transform="matrix(0.26458333,0,0,0.26458333,-176.1199,91.297016)" id="layer1-8" inkscape:label="Layer 1">
<path style="fill:#c0c0c0;stroke-width:1.33333004;stroke-linecap:round;stroke-dashoffset:20.00012016;paint-order:stroke markers fill" d="m 710.6,844.51 1.4,1.5 16.7,-16.7 16.4,16.4 1.4,-1.3 -16.4,-16.4 -1.5,-1.5 -1.4,1.4 z m -2.7,8.5 1.4,1.4 19.4,-19.4 19.2,19.2 1.5,-1.4 -19.3,-19.2 -1.4,-1.5 -1.4,1.5 z m 5.7,-0.1 1.4,1.4 13.8,-13.8 13.6,13.6 1.4,-1.4 -13.6,-13.6 -1.4,-1.4 -1.5,1.5 z" id="path3074" inkscape:connector-curvature="0" />
</g>
<g transform="matrix(0.26458333,0,0,0.26458333,-149.78064,91.619808)" id="layer1-140" inkscape:label="Layer 1">
<path inkscape:connector-curvature="0" id="rect3239" d="m 666.1,819.22 v 9.99 h 4 v 5.01 h -4 l 0.1,3.94 h -5.1 v -3.93 h -10 v 10.03 h 10 l -0.1,-4 h 5.1 v 4 h 2 v 5 h -2 v 10 h 10 v -10 h -2 v -5 h 2 v -2 h 5 v 2 h 10 v -10.04 h -10 l 0.1,1.99 h -5.1 v -2 h -4 v -5 h 4 v -9.99 z m 2,2.01 h 6 v 6.02 h -6 z m 15,14.98 h 6 v 6.05 h -6 z m -29,0 a 0.99999,0.99998 0 0 1 1,1 0.99999,0.99998 0 0 1 -1,0.95 0.99999,0.99998 0 0 1 -1,-0.95 0.99999,0.99998 0 0 1 1,-1 z m 4,0 a 0.99999,0.99998 0 0 1 1,1 0.99999,0.99998 0 0 1 -1,0.95 0.99999,0.99998 0 0 1 -1,-0.95 0.99999,0.99998 0 0 1 1,-1 z m 18,1.95 h 5.1 l -0.1,2.1 H 676 Z m -22,2 a 0.99999,0.99998 0 0 1 1,1 0.99999,0.99998 0 0 1 -1,1 0.99999,0.99998 0 0 1 -1,-1 0.99999,0.99998 0 0 1 1,-1 z m 4,0 a 0.99999,0.99998 0 0 1 1,1 0.99999,0.99998 0 0 1 -1,1 0.99999,0.99998 0 0 1 -1,-1 0.99999,0.99998 0 0 1 1,-1 z m 12,4 h 2 v 5 h -2 z m -1,7 a 0.99999,0.99998 0 0 1 1,1 0.99999,0.99998 0 0 1 -1,1 0.99999,0.99998 0 0 1 -1,-1 0.99999,0.99998 0 0 1 1,-1 z m 4,0 a 0.99999,0.99998 0 0 1 1,1 0.99999,0.99998 0 0 1 -1,1 0.99999,0.99998 0 0 1 -1,-1 0.99999,0.99998 0 0 1 1,-1 z m -4,4 a 0.99999,0.99998 0 0 1 1,1 0.99999,0.99998 0 0 1 -1,1 0.99999,0.99998 0 0 1 -1,-1 0.99999,0.99998 0 0 1 1,-1 z m 4,0 a 0.99999,0.99998 0 0 1 1,1 0.99999,0.99998 0 0 1 -1,1 0.99999,0.99998 0 0 1 -1,-1 0.99999,0.99998 0 0 1 1,-1 z" style="fill:#c0c0c0;stroke-width:2.00001001;stroke-dashoffset:20.00012016;paint-order:stroke markers fill" />
</g>
<g transform="matrix(0.26458333,0,0,0.26458333,-203.02008,90.381544)" id="layer1-174" inkscape:label="Layer 1">
<path inkscape:connector-curvature="0" id="path2416" d="m 788.27,831.14 c -3.4,0 -6.9,1.17 -9.6,3.51 -5.4,4.46 -6.9,11.96 -3.9,18.11 l -3.8,2.24 1,1.73 5.6,-3.26 -1,-1.73 h -0.1 c -2.5,-5.32 -1.2,-11.74 3.4,-15.59 4.9,-4.06 11.9,-4.06 16.8,0 4.7,4 5.9,10.78 3,16.21 l -0.6,1.08 5.6,3.26 1,-1.72 -3.9,-2.29 c 2.9,-6.14 1.4,-13.62 -3.9,-18.07 -2.7,-2.34 -6.2,-3.51 -9.6,-3.51 z m 0,8.89 -5.3,3.06 v 6.11 l 5.3,3.05 5.3,-3.05 v -6.11 z" style="color:#000000;fill:#c0c0c0;stroke-width:1.99998999;stroke-dashoffset:20.00012016;paint-order:stroke markers fill" />
</g>
<g transform="matrix(0.26458333,0,0,0.26458333,-243.58864,114.93753)" id="layer1-96" inkscape:label="Layer 1">
<path inkscape:connector-curvature="0" id="path2303-5" d="m 1014.7,691.74 c -0.3,0 -0.5,0 -0.8,0.11 v 0 c -3.7,0.98 -3.7,9 -3.7,9 h 9 c 0,0 0,-9.06 -4.5,-9.07 z m 11,0 c -0.3,0 -0.5,0 -0.8,0.11 v 0 c -3.7,0.98 -3.7,9 -3.7,9 h 9 c 0,0 0,-9.06 -4.5,-9.07 z m 11,0 c -0.3,0 -0.5,0 -0.8,0.11 v 0 c -3.7,0.98 -3.7,9 -3.7,9 h 8.9 c 0,0 0,-9.06 -4.4,-9.07 z m -21.5,2.13 c 1,0.29 1.5,1.01 2,1.89 v 3.04 h -2 z m 11,0 c 1,0.29 1.5,1.01 2,1.89 v 3.04 h -2 z m 11,0 c 1,0.29 1.5,1.01 2,1.89 v 3.04 h -2 z m -27,8.99 v 15.62 h 9 v -15.62 z m 11,0 v 15.62 h 9 v -15.62 z m 11,0 v 15.62 h 8.9 v -15.62 z m -17,1.99 h 2 v 11.6 h -2 z m 11,0 h 2 v 11.6 h -2 z m 11,0 h 2 v 11.6 h -2 z m -29,15.62 v 6.01 h 7 v -5.99 z m 9,0 v 6.01 h 4 v -5.99 z m 6,0 v 6.01 h 3 v -5.99 z m 5,0 v 6.01 h 4 v -5.99 z m 6,0 v 6.01 h 3 v -5.99 z m 5,0 v 6.01 h 3.9 v -5.99 z" style="color:#000000;fill:#c0c0c0;stroke-width:2;stroke-dashoffset:20.00012016;paint-order:stroke markers fill" />
</g>
<g transform="matrix(0.26458333,0,0,0.26458333,-245.50687,114.13849)" id="layer1-146" inkscape:label="Layer 1">
<path inkscape:connector-curvature="0" id="path2303" d="m 1078.6,694.44 c -3.8,0 -5.9,7.74 -5.9,7.74 l 8.7,2.29 c 0,0 2.3,-8.76 -2,-9.92 -0.3,-0.1 -0.5,-0.11 -0.8,-0.11 z m 0.7,2.33 c 0.9,0.54 1.2,1.36 1.5,2.35 l -0.8,2.94 -2,-0.51 z m -13.5,0.1 c -1.5,0.1 -2.8,0.55 -3.8,1.55 -2,1.99 -1.9,5.3 -0.7,8.74 1,2.9 3,6.04 5.7,9.04 l 0.6,-2.33 c -2.1,-2.52 -3.6,-5.11 -4.4,-7.43 -1.1,-3.03 -1,-5.43 0.2,-6.61 0.6,-0.59 1.5,-0.92 2.6,-0.97 1.1,-0.1 2.5,0.19 4,0.72 0.4,0.16 0.9,0.35 1.3,0.56 0.2,-0.54 0.5,-1.17 0.8,-1.84 -0.5,-0.21 -0.9,-0.4 -1.4,-0.56 -1.7,-0.61 -3.4,-0.94 -4.9,-0.87 z m 18.2,4.59 c 0,0.73 -0.1,1.4 -0.2,1.96 0.4,0 0.9,0.12 1.3,0.19 3.1,0.59 5.1,1.91 5.6,3.52 0.3,1.25 -0.3,2.84 -1.7,4.46 0.3,0.63 0.6,1.26 0.9,1.88 2.1,-2.12 3.3,-4.52 2.7,-6.86 -0.7,-2.72 -3.7,-4.31 -7.2,-4.95 -0.5,-0.1 -0.9,-0.15 -1.4,-0.2 z m -13.6,1.73 c -2,0.65 -3.8,1.43 -5.4,2.32 0,0.1 0.1,0.18 0.1,0.28 0.2,0.51 0.4,1.04 0.7,1.59 1.2,-0.68 2.6,-1.29 4,-1.84 z m 1.8,0.98 -4.1,15.07 8.7,2.33 4.1,-15.07 z m 10.8,2.42 -0.1,0.38 -0.5,1.98 c 2,2.48 3.5,5.04 4.3,7.32 1.1,3.03 0.9,5.43 -0.2,6.61 -1.1,1.08 -3.2,1.27 -5.9,0.49 l -0.5,1.91 c 3.1,0.91 6,0.82 7.8,-0.98 2,-2 1.9,-5.31 0.7,-8.74 -1.1,-2.89 -3,-6 -5.6,-8.97 z m -6.5,0.79 1.9,0.52 -3,11.21 -1.9,-0.51 z m -16.6,1.81 c -2.1,2.13 -3.3,4.56 -2.7,6.92 0.7,2.48 3.2,4 6.4,4.75 l 0.5,-1.91 c -2.8,-0.64 -4.5,-1.87 -4.9,-3.36 -0.4,-1.26 0.2,-2.84 1.7,-4.47 -0.4,-0.65 -0.7,-1.29 -1,-1.93 z m 24.2,6.13 c -1.2,0.67 -2.5,1.29 -4,1.84 l -0.6,2.36 c 2,-0.66 3.7,-1.45 5.4,-2.33 -0.1,-0.1 -0.1,-0.16 -0.1,-0.25 -0.2,-0.51 -0.4,-1.06 -0.7,-1.62 z m -18.4,5.34 -1.6,5.79 6.8,1.81 1.5,-5.79 z m 8.7,2.33 -1.6,5.79 3.9,1.04 1.5,-5.8 z" style="color:#000000;fill:#c0c0c0;stroke-width:2;stroke-dashoffset:20.00012016;paint-order:stroke markers fill" />
</g>
<g transform="matrix(0.26458333,0,0,0.26458333,-236.0877,113.75617)" id="layer1-61" inkscape:label="Layer 1">
<path inkscape:connector-curvature="0" id="path3318" d="m 1121.2,695.89 -3.1,12.77 4.3,0.96 -1.2,10.09 6.4,-12.35 -5.7,-1.02 5.7,-10.01 z m 7.5,13.75 -5,9.65 a 15,5 0 0 0 14.6,-4.99 15,5 0 0 0 -9.6,-4.66 z m -13,0.35 a 15,5 0 0 0 -7.4,4.31 15,5 0 0 0 10.9,4.81 l 1,-7.93 -4.5,-1.01 z m 21.6,8.08 a 15,5 0 0 1 -3,1.62 v 6.01 a 15,5 0 0 0 3,-1.59 z m -28,0 v 6 a 15,5 0 0 0 3,1.6 v -6.01 a 15,5 0 0 1 -3,-1.59 z m 5,2.19 v 6.04 a 15,5 0 0 0 3,0.58 v -6 a 15,5 0 0 1 -3,-0.59 z m 18,0 a 15,5 0 0 1 -3,0.58 v 6.01 a 15,5 0 0 0 3,-0.58 z m -13,0.82 v 6 a 15,5 0 0 0 3,0.17 v -6 a 15,5 0 0 1 -3,-0.17 z m 8,0 a 15,5 0 0 1 -3,0.17 v 5.99 a 15,5 0 0 0 3,-0.17 z m -18.7,4.17 a 15,5 0 0 0 -0.3,1.01 15,5 0 0 0 15,5 15,5 0 0 0 15,-5 15,5 0 0 0 -0.3,-0.99 15,5 0 0 1 -14.7,3.99 15,5 0 0 1 -14.7,-4.01 z" style="fill:#c0c0c0;stroke-width:2.00005007;stroke-dashoffset:20.00012016;paint-order:stroke markers fill" />
</g>
<g transform="matrix(0.26458333,0,0,0.26458333,-237.49498,112.11595)" id="layer1-7" inkscape:label="Layer 1">
<path sodipodi:nodetypes="ccccccccccccccccccccccccccccccccccccccccccccccccccc" inkscape:connector-curvature="0" id="ellipse2253" d="m 1161.7,706.27 c -1.3,0.1 -2.4,0.5 -3.2,1.27 -3.1,3.22 -0.2,11.27 6.6,17.99 0.9,0.93 1.9,1.79 2.8,2.59 l 0.2,-1.88 c -0.7,-0.63 -1.4,-1.29 -2.1,-1.98 -5.7,-5.76 -8.3,-12.52 -5.7,-15.11 0.7,-0.63 1.5,-0.97 2.7,-1 1.2,0 2.7,0.31 4.4,1.02 l 0.2,-1.32 v -0.17 c -1.9,-0.87 -3.7,-1.35 -5.2,-1.41 -0.2,0 -0.5,0 -0.7,0 z m 7.9,2.07 -3.1,12.77 4.3,0.96 -1.2,10.09 6.4,-12.35 -5.7,-1.02 5.7,-10.01 z m 8.1,1.38 v 0.1 l -0.8,1.61 c 0.1,0.13 0.3,0.24 0.4,0.36 1.3,0 2.4,0.11 3.5,0.31 3.3,0.56 5.1,1.9 5.6,3.49 0.3,1.44 -0.4,3.24 -2.3,5.16 0.4,0.65 0.7,1.32 1,1.97 2.4,-2.3 4,-5.06 3.2,-7.65 -0.8,-2.75 -3.4,-4.37 -7.1,-5.02 -1,-0.19 -2.1,-0.28 -3.5,-0.31 z m -1.9,3.59 -0.7,1.41 c 0.1,0.1 0.2,0.2 0.2,0.31 5.8,5.78 8.4,12.4 5.8,14.94 -1.5,1.45 -4.4,1.32 -7.8,-0.36 l -0.8,1.54 c 4.6,2.49 8.6,2.82 10.6,0.86 3.1,-3.21 0.1,-11.25 -6.6,-17.97 -0.2,-0.25 -0.5,-0.5 -0.7,-0.73 z m -19.2,3.41 c -2.9,2.35 -4.4,5.08 -3.7,7.8 0.8,2.69 3.6,4.4 7.2,5.04 1.9,0.36 4.3,0.42 6.6,0.22 -0.8,-0.62 -1.5,-1.28 -2.2,-1.96 -1.5,0 -2.9,-0.11 -4,-0.3 -3.2,-0.62 -5,-1.94 -5.4,-3.54 -0.6,-1.47 0.3,-3.37 2.3,-5.3 -0.3,-0.66 -0.6,-1.31 -0.8,-1.96 z" style="color:#000000;fill:#c0c0c0;stroke-width:2;stroke-dashoffset:20.00012016;paint-order:stroke markers fill" />
</g>
<g transform="matrix(0.26458333,0,0,0.26458333,-83.939059,41.265629)" id="layer1-2" inkscape:label="Layer 1">
<path inkscape:connector-curvature="0" style="fill:#c0c0c0;stroke-width:1.33333004;stroke-linecap:round;stroke-dashoffset:20.00012016;paint-order:stroke markers fill" d="m 477.69,930.67 -13.44,13.44 -13.44,-13.44 -1.41,1.41 13.44,13.44 -13.51,13.51 1.41,1.41 13.51,-13.51 13.51,13.51 1.41,-1.41 -13.51,-13.51 13.44,-13.44 z" id="path2289-7-3-9" />
</g>
<rect y="319.22495" x="-11.1125" height="11.1125" width="11.1125" id="rect1000" style="fill:#3d3d3d;stroke-width:0.26458332" />
</g>
</svg>
