<?xml version="1.0" encoding="UTF-8" standalone="no"?>
<!-- Created with Inkscape (http://www.inkscape.org/) -->

<svg
 xmlns:dc="http://purl.org/dc/elements/1.1/"
 xmlns:cc="http://creativecommons.org/ns#"
 xmlns:rdf="http://www.w3.org/1999/02/22-rdf-syntax-ns#"
 xmlns:svg="http://www.w3.org/2000/svg"
 xmlns="http://www.w3.org/2000/svg"
 xmlns:sodipodi="http://sodipodi.sourceforge.net/DTD/sodipodi-0.dtd"
 xmlns:inkscape="http://www.inkscape.org/namespaces/inkscape"
 width="62.53"
 height="63.65"
 viewBox="0 0 62.53 63.65"
 id="svg2"
 version="1.1"
 inkscape:version="0.92.3 (2405546, 2018-03-11)"
 sodipodi:docname="keybindinggridbackground.shipicon.svg">
<defs
 id="defs4" />
<sodipodi:namedview
 id="base"
 pagecolor="#202020"
 bordercolor="#666666"
 borderopacity="1.0"
 inkscape:pageopacity="0"
 inkscape:pageshadow="2"
 inkscape:zoom="3.0518"
 inkscape:cx="33.521"
 inkscape:cy="70.273"
 inkscape:document-units="px"
 inkscape:current-layer="layer1"
 showgrid="false"
 units="px"
 inkscape:object-nodes="true"
 inkscape:snap-global="true"
 inkscape:snap-bbox="true"
 inkscape:snap-bbox-midpoints="true"
 inkscape:snap-bbox-edge-midpoints="true"
 inkscape:bbox-nodes="true"
 showguides="false"
 inkscape:guide-bbox="true"
 inkscape:snap-center="true"
 inkscape:object-paths="false"
 inkscape:snap-page="true"
 inkscape:snap-object-midpoints="false"
 inkscape:measure-start="766.99,87.81"
 inkscape:measure-end="767.557,86.2241"
 inkscape:snap-midpoints="false"
 inkscape:snap-nodes="false"
 inkscape:snap-others="false"
 inkscape:bbox-paths="false"
 inkscape:snap-smooth-nodes="false"
 inkscape:snap-intersection-paths="false"
 inkscape:snap-grids="true"
 fit-margin-top="0"
 fit-margin-left="0"
 fit-margin-right="0"
 fit-margin-bottom="0" />
<metadata
 id="metadata7">
<rdf:RDF>
<cc:Work
 rdf:about="">
<dc:format>image/svg+xml</dc:format>
<dc:type
 rdf:resource="http://purl.org/dc/dcmitype/StillImage" />
<dc:title></dc:title>
</cc:Work>
</rdf:RDF>
</metadata>
<g
 inkscape:label="Layer 1"
 inkscape:groupmode="layer"
 id="layer1"
 transform="translate(-455.97,-918.48)">
<path
 style="fill:#2f4f4f;stroke-width:1.00005;stroke-linecap:round;stroke-linejoin:round;paint-order:fill markers stroke"
 d="m 517.56,925.3 -6.07,-3.5 -5.96,2.33 -3.77,6.53 v 0.15 l -6.73,3.27 -0.86,-12.12 -10.8,-3.48 -27.4,21.05 1.19,25.15 5.12,-1.27 4.01,1.05 2.99,3.01 9.62,5.55 4.1,1.09 3.01,3 1.37,5.02 22.37,-11.55 4.26,-32.15 0.73,-0.29 3.76,-6.52 z"
 id="rect2313-5"
 inkscape:connector-curvature="0" />
<path
 style="fill:#000000;stroke-width:1.47261;stroke-linecap:round;stroke-linejoin:round;paint-order:fill markers stroke"
 d="m 508.84,924.99 -1.98,0.84 9.52,5.5 -0.26,-2.14 z m -0.1,2.97 -4.06,2.35 1.49,0.86 4.06,-2.35 z m 2.69,1.55 -4.07,2.35 1.5,0.86 4.05,-2.35 z m 2.77,1.6 -4.06,2.35 1.49,0.86 4.06,-2.35 z m -22.4,-7.8 -1.47,-0.46 -1.26,2.18 -0.11,1.01 -0.34,3.05 3.39,-5.66 z m -2.45,-0.77 -2.15,-0.67 -25.64,20.41 0.23,3.57 -3.67,0.99 v 1.44 l 3.78,-0.99 v -0.73 l 0.2,3.17 -0.1,-1 -3.77,0.98 0.13,1.57 3.74,-0.99 0.1,1.5 -3.68,1.01 v 1.57 l 3.76,-1.02 0.14,2.09 -0.1,-0.86 -3.74,1.02 0.1,1.66 3.76,-1.07 v 0.49 l 2.01,-0.1 -1.3,-13.56 26.07,-20.34 z m 14.55,8.4 0.27,2.14 7.28,4.2 1.98,-0.84 z m -11.54,-5.6 -4.06,7.03 -0.39,3.45 4.66,-8.07 z m 11.71,6.92 -3.74,6.47 3.29,-2.44 0.77,-1.33 z m -1.85,0.6 -2.04,0.93 -5.26,8.91 2.56,-1.89 z m 6.71,5.46 v 0 0 l -4.33,-2.5 -0.92,1.59 1.73,1 -10.87,18.83 c -1.35,2.34 -4.38,3.14 -6.72,1.78 -2.36,-1.36 -3.17,-4.37 -1.81,-6.73 1.36,-2.36 4.38,-3.16 6.74,-1.8 l 0.48,-0.84 c -2.82,-1.63 -6.44,-0.66 -8.07,2.16 -1.63,2.82 -0.66,6.44 2.16,8.07 2.83,1.63 6.45,0.66 8.07,-2.15 l 10.87,-18.83 1.74,1 -1.5,2.6 -3.24,23.64 -12.46,5.59 0.92,1.79 0.62,-0.3 0.96,3.76 1.57,-0.71 -1.02,-3.8 -1.34,0.66 2.37,-1.17 1.01,3.74 1.44,-0.7 -1.01,-3.76 2.66,-1.31 1.36,-0.67 1.03,3.75 1.4,-0.63 -1.04,-3.81 1.21,-0.6 1.03,3.73 1.35,-0.73 -0.99,-3.69 0.33,-0.16 z m -10,31.61 -1.34,0.67 1.01,3.73 1.33,-0.71 z m -6.16,-40.11 -5.22,8.84 -0.41,3.67 5.86,-9.94 z m 5.21,4.98 -2.2,1.01 -6.36,11.02 2.69,-1.99 z m -4.78,-0.32 -6.42,11.13 -0.24,2.12 c 0.35,-0.19 0.73,-0.35 1.12,-0.47 l 6.08,-10.53 -0.31,0.14 z m -12.79,1.76 c -3.21,-1.85 -9.09,7.94 -9.09,7.94 1.74,2.38 4.1,3.69 7.02,4.05 0,0 5.45,-10.04 2.07,-11.99 z m -10.08,9.65 -0.92,1.6 c 1.73,2.39 4.1,3.69 7.01,4.05 0,0 0.6,-0.83 0.93,-1.6 -2.9,-0.39 -5.25,-1.71 -7.02,-4.05 z m -8.74,-3.1 -3.77,0.97 0.13,1.58 3.75,-0.99 z m 6.84,6.39 -0.94,1.64 c 1.74,2.38 4.1,3.69 7.01,4.05 0,0 0.6,-0.83 0.95,-1.64 -3.14,-0.56 -5.47,-1.94 -7.02,-4.05 z m 4.85,12.61 -4.27,0.99 14.29,8.25 -1.27,-4.19 z m 1.27,1.79 5.2,3 0.55,1.65 -7.45,-4.3 z"
 id="path1518-2"
 inkscape:connector-curvature="0" />
</g>
</svg>
