<?xml version="1.0" encoding="UTF-8" standalone="no"?>
<!-- Created with Inkscape (http://www.inkscape.org/) -->

<svg
 xmlns:dc="http://purl.org/dc/elements/1.1/"
 xmlns:cc="http://creativecommons.org/ns#"
 xmlns:rdf="http://www.w3.org/1999/02/22-rdf-syntax-ns#"
 xmlns:svg="http://www.w3.org/2000/svg"
 xmlns="http://www.w3.org/2000/svg"
 xmlns:sodipodi="http://sodipodi.sourceforge.net/DTD/sodipodi-0.dtd"
 xmlns:inkscape="http://www.inkscape.org/namespaces/inkscape"
 width="16"
 height="16"
 viewBox="0 0 16 16"
 id="svg2"
 version="1.1"
 inkscape:version="0.92.3 (2405546, 2018-03-11)"
 sodipodi:docname="projectile.highspeed.svg">
<defs
 id="defs4" />
<sodipodi:namedview
 id="base"
 pagecolor="#000000"
 bordercolor="#666666"
 borderopacity="1.0"
 inkscape:pageopacity="0"
 inkscape:pageshadow="2"
 inkscape:zoom="9.3133"
 inkscape:cx="-0.96067"
 inkscape:cy="8.6199"
 inkscape:document-units="px"
 inkscape:current-layer="layer1"
 showgrid="false"
 units="px"
 inkscape:object-nodes="false"
 inkscape:snap-global="true"
 inkscape:snap-bbox="true"
 inkscape:snap-bbox-midpoints="false"
 inkscape:snap-bbox-edge-midpoints="false"
 inkscape:bbox-nodes="true"
 showguides="true"
 inkscape:guide-bbox="true"
 inkscape:snap-center="true"
 inkscape:object-paths="false"
 inkscape:snap-page="true"
 inkscape:snap-object-midpoints="false"
 inkscape:measure-start="16.7696,-51.1562"
 inkscape:measure-end="24.1716,-68.1141"
 inkscape:snap-midpoints="false"
 inkscape:snap-nodes="false"
 inkscape:snap-others="false"
 inkscape:bbox-paths="false"
 inkscape:snap-smooth-nodes="false"
 inkscape:snap-intersection-paths="false"
 fit-margin-top="0"
 fit-margin-left="0"
 fit-margin-right="0"
 fit-margin-bottom="0" />
<metadata
 id="metadata7">
<rdf:RDF>
<cc:Work
 rdf:about="">
<dc:format>image/svg+xml</dc:format>
<dc:type
 rdf:resource="http://purl.org/dc/dcmitype/StillImage" />
<dc:title />
</cc:Work>
</rdf:RDF>
</metadata>
<g
 inkscape:label="Layer 1"
 inkscape:groupmode="layer"
 id="layer1"
 transform="translate(-1289.7,-224.25)">
<path
 style="fill:#000000;stroke-width:4.60348;stroke-linecap:round;stroke-linejoin:round;paint-order:fill markers stroke"
 d="m 1305.7,232.25 a 7.9998,7.9998 0 0 0 -8,-8 7.9998,7.9998 0 0 0 -7.6,5.4 3,3 0 0 1 1.6,-0.4 3,3 0 0 1 3,3 3,3 0 0 1 -3,3 3,3 0 0 1 -1.6,-0.4 7.9998,7.9998 0 0 0 7.6,5.4 7.9998,7.9998 0 0 0 8,-8 z"
 id="circle1531-78"
 inkscape:connector-curvature="0" />
<path
 style="fill:#adff2f;stroke-width:4.6036;stroke-linecap:round;stroke-linejoin:round;paint-order:fill markers stroke"
 d="m 1303.7,232.25 a 6,6 0 0 0 -6,-6 6,6 0 0 0 -3.9,1.5 5,5 0 0 1 2.9,4.5 5,5 0 0 1 -2.9,4.5 6,6 0 0 0 3.9,1.5 6,6 0 0 0 6,-6 z"
 id="circle1533-6"
 inkscape:connector-curvature="0" />
<path
 style="fill:#3cb371;stroke-width:4.60362;stroke-linecap:round;stroke-linejoin:round;paint-order:fill markers stroke"
 d="m 1301.7,232.25 a 4,4 0 0 0 -4,-4 4,4 0 0 0 -0.3,0 7,7 0 0 1 1.3,4 7,7 0 0 1 -1.3,4 4,4 0 0 0 0.3,0 4,4 0 0 0 4,-4 z"
 id="circle1535-7"
 inkscape:connector-curvature="0" />
</g>
</svg>
